<!-- Generated by IcoMoon.io -->
<svg version="1.1" xmlns="http://www.w3.org/2000/svg" width="32" height="32" viewBox="0 0 32 32">
<path d="M4.919 0.651h22.387v4.618h-22.387c0-1.506 0-3.112 0-4.618zM5.622 24.645c0.301 0.201 0.703 0.201 1.104 0.301 0.301 0 0.602 0 0.904-0.1l0.402-0.1 4.919-3.313v10.541c0 0.201 0 0.402 0.201 0.602 0.1 0.201 0.402 0.201 0.602 0.201h4.819c0.201 0 0.402 0 0.602-0.201 0.201-0.1 0.201-0.402 0.201-0.602v-10.441l4.819 3.313 0.402 0.1c0.301 0 0.602 0.1 0.904 0.1 0.402 0 0.803-0.1 1.104-0.201 0.402-0.1 0.703-0.402 0.904-0.703 0.402-0.502 0.502-1.004 0.502-1.606s-0.201-1.104-0.502-1.606c0 0-0.402-0.502-1.305-1.506-3.614-4.618-6.124-7.63-7.73-9.236-0.602-0.803-1.405-1.305-2.409-1.606-1.004 0.301-1.807 0.803-2.409 1.606-1.405 1.506-3.715 4.216-7.027 8.132-1.305 1.506-1.907 2.309-2.008 2.309-0.402 0.502-0.602 1.004-0.602 1.606s0.201 1.205 0.502 1.606c0.402 0.502 0.703 0.703 1.104 0.803v0z"></path>
</svg>
