<!-- Generated by IcoMoon.io -->
<svg version="1.1" xmlns="http://www.w3.org/2000/svg" width="32" height="32" viewBox="0 0 32 32">
<path d="M26.040 18.189c-0.107 0.258-0.311 0.537-0.612 0.837l-13.551 13.551q-0.386 0.386-0.805 0.547t-0.966 0.193-0.998-0.193c-0.3-0.15-0.579-0.333-0.837-0.547l-1.513-1.513q-0.386-0.386-0.579-0.901t-0.193-0.933q0-0.547 0.193-0.966c0.129-0.279 0.322-0.558 0.579-0.837l9.978-10.204-9.946-9.914q-0.354-0.354-0.547-0.869t-0.193-0.933q0-0.547 0.193-0.966c0.129-0.279 0.311-0.558 0.547-0.837l1.513-1.835q0.386-0.386 0.805-0.579t0.998-0.161 0.998 0.161c0.279 0.086 0.558 0.279 0.837 0.579l13.455 13.616q0.418 0.386 0.612 0.773c0.129 0.258 0.193 0.579 0.193 0.966q0 0.579-0.161 0.966z"></path>
</svg>
