<!-- Generated by IcoMoon.io -->
<svg version="1.1" xmlns="http://www.w3.org/2000/svg" width="32" height="32" viewBox="0 0 32 32">
<path d="M17.060 7.277c0.279 0.107 0.558 0.311 0.837 0.612l13.551 13.551q0.386 0.386 0.579 0.805t0.161 0.966-0.161 0.998c-0.086 0.3-0.279 0.579-0.579 0.837l-1.513 1.513q-0.386 0.386-0.869 0.579t-0.966 0.193q-0.547 0-0.966-0.193c-0.279-0.129-0.558-0.322-0.837-0.579l-10.204-11.523-9.914 11.491q-0.354 0.354-0.837 0.547t-0.966 0.193q-0.547 0-0.966-0.193c-0.279-0.129-0.558-0.311-0.837-0.547l-1.835-1.513q-0.386-0.386-0.547-0.805t-0.193-0.998 0.193-0.998c0.15-0.279 0.333-0.558 0.547-0.837l13.616-13.455q0.386-0.418 0.805-0.612c0.279-0.129 0.59-0.193 0.933-0.193q0.547 0 0.966 0.161z"></path>
</svg>
