<!-- Generated by IcoMoon.io -->
<svg version="1.1" xmlns="http://www.w3.org/2000/svg" width="32" height="32" viewBox="0 0 32 32">
<path d="M16.094 11.815l-11.201-9.946q-0.869-0.772-2.028-0.772t-2.060 0.837q-0.805 0.869-0.837 2.028c-0.022 0.773 0.236 1.459 0.772 2.060l9.946 11.201-9.946 11.201q-0.772 0.869-0.772 2.028t0.837 2.028q0.869 0.837 2.060 0.837c0.794 0 1.481-0.247 2.060-0.74l11.169-9.946 11.201 9.946q0.869 0.773 2.060 0.74t2.028-0.837q0.805-0.869 0.805-2.028c0-0.773-0.268-1.448-0.805-2.028l-9.882-11.201 9.946-11.201q0.773-0.869 0.773-2.060t-0.869-2.028q-0.837-0.805-1.996-0.837c-0.773-0.022-1.459 0.236-2.060 0.772-3.734 3.315-7.468 6.631-11.201 9.946z"></path>
</svg>
