<?xml version="1.0" encoding="UTF-8"?>
<svg id="Layer_1" xmlns="http://www.w3.org/2000/svg" version="1.1" viewBox="0 0 32 32">
  <!-- Generator: Adobe Illustrator 30.1.0, SVG Export Plug-In . SVG Version: 2.1.1 Build 136)  -->
  <defs>
    <style>
      .st0 {
        fill: #fff;
      }

      .st1 {
        fill: #358941;
      }
    </style>
  </defs>
  <g id="confirmation">
    <rect class="st0" x="7" y="5" width="18" height="23"/>
    <g id="confirmation1" data-name="confirmation">
      <path class="st1" d="M4.29.37C.39,1,0,2.48,0,15.98s.35,14.94,4.68,15.64c3.04.51,19.59.51,22.6,0,4.49-.74,4.68-1.49,4.72-15.64,0-14.16-.23-14.9-4.72-15.64-2.77-.48-20.22-.44-22.99.03ZM23.14,8.62c.27.27.47.74.47,1.06,0,.82-7.84,13.77-8.47,14-.86.31-1.6-.59-4.25-5.08-2.61-4.46-2.77-4.93-2.03-5.67.74-.74,1.21-.59,3.51,1.49l2.19,1.92,2.81-3.21c3.12-3.52,4.57-4.97,5.03-4.97.16,0,.47.19.74.46Z"/>
    </g>
  </g>
</svg>