<!-- Generated by IcoMoon.io -->
<svg version="1.1" xmlns="http://www.w3.org/2000/svg" width="32" height="32" viewBox="0 0 32 32">
<path d="M21.876 4.684c-3.856-0.558-7.734-0.558-11.59 0-0.992 0.148-1.753 1.070-1.753 2.007 0 6.749 0 13.498 0 20.248 0 0.936 0.799 1.859 1.791 2.007 3.856 0.558 7.696 0.558 11.552 0 0.992-0.148 1.716-1.070 1.716-2.007 0-6.749 0-13.498 0-20.248 0-0.936-0.723-1.859-1.716-2.007zM16.063 27.933c-0.735 0-1.33-0.596-1.33-1.33s0.596-1.33 1.33-1.33 1.33 0.596 1.33 1.33-0.596 1.33-1.33 1.33zM21.584 23.842h-11.043v-16.063h11.043v16.063z"></path>
</svg>
