<?xml version="1.0" encoding="UTF-8"?>
<svg id="Layer_1" xmlns="http://www.w3.org/2000/svg" version="1.1" viewBox="0 0 32 32">
  <!-- Generator: Adobe Illustrator 30.1.0, SVG Export Plug-In . SVG Version: 2.1.1 Build 136)  -->
  <defs>
    <style>
      .st0 {
        fill: #fff;
      }

      .st1 {
        fill: #d42e27;
      }
    </style>
  </defs>
  <g id="error">
    <rect class="st0" x="7.2" y="4" width="18" height="23"/>
    <g id="error1" data-name="error">
      <path class="st1" d="M16,0C7.2,0,0,7.2,0,16s7.2,16,16,16,16-7.2,16-16S24.8,0,16,0ZM22.5,22.5c-.5.5-1.3.5-1.8,0l-4.8-4.2-4.7,4.2c-.5.5-1.3.5-1.8,0s-.5-1.3,0-1.8l4.2-4.8-4.2-4.8c-.4-.5-.4-1.2,0-1.7.5-.4,1.3-.4,1.8,0l4.8,4.2,4.8-4.2v.1c.5-.5,1.3-.5,1.8,0s.5,1.2,0,1.7l-4.3,4.8,4.2,4.8c.5.5.5,1.3,0,1.7Z"/>
    </g>
  </g>
</svg>