<!-- Generated by IcoMoon.io -->
<svg version="1.1" xmlns="http://www.w3.org/2000/svg" width="34" height="32" viewBox="0 0 34 32">
<path d="M13.616 31.997q-2.124-1.288-4.442-3.476-2.446-2.317-4.41-5.054-2.189-3.026-3.412-6.084-1.352-3.38-1.352-6.47 0-2.543 1.288-4.828 1.255-2.253 3.348-3.573 2.157-1.384 4.571-1.384 2.607 0 4.893 1.577 1.674 1.191 2.993 3.090 1.352-1.899 2.993-3.090 2.285-1.577 4.925-1.577 2.414 0 4.571 1.384 2.060 1.32 3.315 3.573 1.288 2.285 1.288 4.86 0 3.090-1.352 6.47-1.191 3.026-3.38 6.051-1.963 2.736-4.442 5.054-2.285 2.189-4.442 3.476c-1.438 0.858-2.597 1.298-3.476 1.32q-1.352-0.032-3.476-1.32zM5.955 4.67q-1.513 0.998-2.478 2.704t-0.933 3.573q0 2.768 1.288 5.794 1.094 2.672 3.122 5.343 1.738 2.35 3.927 4.442 1.931 1.867 3.734 3.058 1.706 1.159 2.511 1.159t2.478-1.159q1.77-1.191 3.734-3.058 2.189-2.092 3.927-4.442 2.028-2.704 3.122-5.343 1.255-3.026 1.255-5.794 0-1.899-0.901-3.573t-2.446-2.704-3.283-0.998q-1.899 0-3.637 1.287-1.223 0.933-2.285 2.414-0.515 0.74-0.805 1.352-0.193 0.354-0.483 0.547t-0.708 0.193-0.676-0.193c-0.172-0.129-0.333-0.311-0.483-0.547l-0.29-0.515q-0.386-0.644-0.837-1.255-0.644-0.837-1.384-1.481-0.901-0.805-1.867-1.255c-0.751-0.365-1.534-0.547-2.35-0.547q-1.738 0-3.251 0.998z"></path>
</svg>
