<?xml version="1.0" encoding="UTF-8"?>
<svg id="Layer_1" xmlns="http://www.w3.org/2000/svg" version="1.1" viewBox="0 0 32 32">
  <!-- Generator: Adobe Illustrator 30.1.0, SVG Export Plug-In . SVG Version: 2.1.1 Build 136)  -->
  <defs>
    <style>
      .st0 {
        fill: #197bc0;
      }

      .st1 {
        fill: #fff;
      }

      .st2 {
        fill: #d42e27;
      }
    </style>
  </defs>
  <g id="error">
    <rect class="st1" x="7.2" y="4" width="18" height="23"/>
    <g id="error1" data-name="error">
      <path class="st2" d="M16,0C7.2,0,0,7.2,0,16s7.2,16,16,16,16-7.2,16-16S24.8,0,16,0ZM22.5,22.5c-.5.5-1.3.5-1.8,0l-4.8-4.2-4.7,4.2c-.5.5-1.3.5-1.8,0s-.5-1.3,0-1.8l4.2-4.8-4.2-4.8c-.4-.5-.4-1.2,0-1.7.5-.4,1.3-.4,1.8,0l4.8,4.2,4.8-4.2v.1c.5-.5,1.3-.5,1.8,0s.5,1.2,0,1.7l-4.3,4.8,4.2,4.8c.5.5.5,1.3,0,1.7Z"/>
    </g>
  </g>
  <g id="explanation">
    <rect class="st1" x="7" y="4" width="18" height="25"/>
    <g id="explanation1" data-name="explanation">
      <path class="st0" d="M31.2,3.5c-.3-1.4-1.4-2.6-2.7-2.7-4.1-.8-11.1-.8-12.5-.8S7.6,0,3.5.8c-1.5.1-2.6,1.2-2.7,2.7-.8,4.1-.8,11.1-.8,12.5s0,8.4.8,12.5c.3,1.4,1.4,2.6,2.7,2.7,4.1.8,11.1.8,12.5.8s8.4,0,12.5-.8c1.4-.3,2.6-1.4,2.7-2.7.8-4.1.8-11.1.8-12.5,0-4.1,0-8.4-.8-12.5ZM17.7,25.6h-3.4v-13.6l3.4-.2v13.8ZM17.2,9.6c-.3.5-.6.6-1.2.6s-1.1-.2-1.4-.6c-.5-.3-.6-.8-.6-1.4,0-.5.2-.9.5-1.4s.8-.6,1.4-.6,1.1.2,1.4.6c.3.3.5.8.5,1.4-.1.5-.3.9-.6,1.4Z"/>
    </g>
  </g>
</svg>