<!-- Generated by IcoMoon.io -->
<svg version="1.1" xmlns="http://www.w3.org/2000/svg" width="32" height="32" viewBox="0 0 32 32">
<path d="M30.321 1.322c-0.386-0.172-0.773-0.236-1.159-0.193h-23.015q-0.644 0-1.191 0.225t-0.933 0.676q-0.515 0.386-0.772 0.933c-0.172 0.365-0.247 0.762-0.225 1.191v2.929q0 1.094 0.998 2.092c0.558 0.579 1.266 0.923 2.124 1.030l10.847-0.129-16.094 16.287q-0.451 0.386-0.676 0.933t-0.225 1.159 0.225 1.191c0.15 0.386 0.376 0.708 0.676 0.966l1.803 1.706q0.869 0.998 2.221 0.998 0.579 0.064 1.159-0.193c0.386-0.172 0.708-0.408 0.966-0.708l16.287-16.287 0.097 10.944q0 0.612 0.225 1.159t0.676 0.966c0.73 0.601 1.438 0.901 2.124 0.901h2.511q0.612 0 1.191-0.258t0.933-0.644q0.418-0.386 0.676-0.966c0.172-0.386 0.247-0.773 0.225-1.159v-22.918q0.129-0.612-0.064-1.191c-0.129-0.386-0.343-0.697-0.644-0.933q-0.386-0.451-0.966-0.708z"></path>
</svg>
