<!-- Generated by IcoMoon.io -->
<svg version="1.1" xmlns="http://www.w3.org/2000/svg" width="17" height="32" viewBox="0 0 17 32">
<path d="M16.352 13.199q-0.483 0.837-1.545 1.706c-0.493 0.386-1.32 0.944-2.478 1.674l-2.414 1.159q-0.966 0.29-1.481 1.191-0.418 0.676-0.483 1.481-0.097 0.644 0.258 1.191c0.043 0.537 0.204 1.030 0.483 1.481l-4.828 0.225q-0.772-0.676-1.191-1.642-0.515-1.030-0.515-2.157-0.064-0.805 0.193-1.545t0.772-1.288c0.708-1.116 1.663-1.931 2.865-2.446l2.672-1.481q1.191-0.676 2.157-1.609 0.322-0.418 0.451-0.933t0.064-1.030q-0.064-0.579-0.386-1.094t-0.837-0.805q-1.577-0.805-3.315-0.676-1.706-0.064-3.38 0.258c-1.18 0.386-2.317 0.869-3.412 1.448v-5.472q1.996-0.772 4.12-1.223t4.281-0.483q1.803-0.064 3.541 0.418t3.187 1.481q1.191 1.062 1.835 2.511c0.429 0.966 0.633 1.996 0.612 3.090q0.032 2.446-1.223 4.571zM2.961 27.749q0.257-0.74 0.772-1.32t1.287-0.901 1.545-0.322q0.805-0.064 1.545 0.193t1.32 0.773q0.579 0.644 0.837 1.448t0.129 1.674q0.064 0.773-0.161 1.513t-0.805 1.352-1.287 0.869-1.545 0.29q-0.772 0.064-1.513-0.193t-1.32-0.773q-0.579-0.612-0.837-1.416c-0.172-0.537-0.225-1.084-0.161-1.642q-0.064-0.805 0.193-1.545z"></path>
</svg>
