<!-- Generated by IcoMoon.io -->
<svg version="1.1" xmlns="http://www.w3.org/2000/svg" width="49" height="32" viewBox="0 0 49 32">
<path d="M47.252 23.339c-0.386 0-0.719 0.139-0.998 0.418l-4.764 4.764v-20.407q0-1.899-0.933-3.541t-2.575-2.543c-1.094-0.601-2.275-0.912-3.541-0.933h-12.457q-0.386-0.064-0.74 0.097t-0.579 0.547-0.225 0.74 0.225 0.74 0.579 0.515c0.236 0.086 0.483 0.139 0.74 0.161h12.457q1.159 0 2.124 0.547t1.545 1.545c0.386 0.665 0.569 1.373 0.547 2.124v20.407l-4.764-4.764q-0.418-0.354-0.966-0.354t-0.933 0.418-0.386 0.933c0 0.343 0.097 0.676 0.29 0.998l7.178 7.146q0.418 0.418 0.998 0.418c0.386 0 0.719-0.139 0.998-0.418l7.178-7.146q0.386-0.418 0.386-0.998c0-0.386-0.129-0.719-0.386-0.998q-0.418-0.418-0.998-0.418zM14.195 30.517q-1.127 0-2.092-0.579t-1.545-1.513c-0.386-0.622-0.579-1.32-0.579-2.092v-20.407l4.764 4.764q0.418 0.354 0.966 0.322t0.901-0.386 0.418-0.966c0.043-0.408-0.064-0.73-0.322-0.966l-7.146-7.146q-0.386-0.418-0.966-0.418c-0.386 0-0.719 0.139-0.998 0.418l-7.178 7.146q-0.354 0.418-0.322 0.966t0.386 0.966 0.966 0.386c0.408-0.022 0.73-0.129 0.966-0.322l4.764-4.764v20.407q0 1.899 0.966 3.509t2.543 2.543c1.052 0.622 2.221 0.944 3.508 0.966h12.425q0.579 0 0.998-0.418t0.418-0.998-0.418-0.998c-0.279-0.279-0.612-0.408-0.998-0.386v-0.032c-4.142 0-8.283 0-12.425 0z"></path>
</svg>
