<!-- Generated by IcoMoon.io -->
<svg version="1.1" xmlns="http://www.w3.org/2000/svg" width="25" height="32" viewBox="0 0 25 32">
<path d="M2.092 32.834c0.322 0.3 0.697 0.461 1.127 0.483h19.313q0.644 0 1.127-0.483c0.322-0.322 0.483-0.697 0.483-1.127v-20.922h-22.532v20.922q0 0.676 0.483 1.127zM20.922 14.004v14.485l-3.219 1.609v-16.094c1.073 0 2.146 0 3.219 0zM14.485 14.004v14.485l-3.219 1.609v-16.094c1.073 0 2.146 0 3.219 0zM8.047 14.004v14.485l-3.219 1.609v-16.094c1.073 0 2.146 0 3.219 0zM19.313 4.348v-1.609q0-0.676-0.483-1.159c-0.322-0.322-0.697-0.472-1.127-0.451h-9.656q-0.644 0-1.127 0.451c-0.322 0.3-0.483 0.687-0.483 1.159v1.609h-4.828q-0.676 0-1.127 0.451c-0.3 0.3-0.461 0.687-0.483 1.159v3.219h25.751v-3.219q0-0.676-0.483-1.159c-0.322-0.322-0.697-0.472-1.127-0.451-1.609 0-3.219 0-4.828 0z"></path>
</svg>
