<!-- Generated by IcoMoon.io -->
<svg version="1.1" xmlns="http://www.w3.org/2000/svg" width="32" height="32" viewBox="0 0 32 32">
<path d="M26.613 25.645c1.955 2.196 3.079 4.753 3.374 7.672h-27.755q0.522-4.338 3.414-7.632c1.928-2.196 4.284-3.642 7.069-4.338v-2.45q-2.571-1.968-3.334-5.784-0.161 0.161-0.361 0.161-0.361 0-0.603-0.562t-0.281-1.285 0.281-1.285 0.603-0.522q0.080 0 0.161 0.040 0.281-3.575 2.289-6.025t4.659-2.41q1.767 0 3.294 1.085t2.49 3.053 1.165 4.298q0.080-0.040 0.161-0.040 0.361 0 0.643 0.522t0.241 1.325q0 0.482-0.121 0.884t-0.321 0.683-0.442 0.241q-0.201 0-0.361-0.161c-0.509 2.597-1.647 4.539-3.414 5.824v2.41q4.218 1.004 7.15 4.298z"></path>
</svg>
