<?xml version="1.0" encoding="UTF-8"?>
<svg id="Layer_1" xmlns="http://www.w3.org/2000/svg" version="1.1" viewBox="0 0 32.05 31.99">
  <!-- Generator: Adobe Illustrator 30.1.0, SVG Export Plug-In . SVG Version: 2.1.1 Build 136)  -->
  <defs>
    <style>
      .st0 {
        fill: #fdb518;
      }

      .st1 {
        fill: #010101;
      }
    </style>
  </defs>
  <g id="warning">
    <path class="st0" d="M31.74,27.59L18.34,1.49c-.6-1.3-2.1-1.8-3.3-1.3-.6.3-1,.7-1.3,1.3L.34,27.59c-1,1.9.3,4.4,2.3,4.4h26.7c2.1,0,3.3-2.4,2.4-4.4Z"/>
    <path class="st1" d="M14.04,24.29c0-.6.2-1.2.5-1.7s.9-.7,1.5-.7,1.1.2,1.5.6c.4.5.6,1.2.5,1.8,0,.6-.2,1.2-.5,1.7-.4.5-.9.7-1.5.7s-1.1-.2-1.5-.6c-.4-.5-.6-1.2-.5-1.8ZM14.44,8.69l3.4-.3-.3,8.4v4l-3.1.1v-12.2h0Z"/>
  </g>
</svg>