<?xml version="1.0" encoding="utf-8"?>
<!-- Generator: Adobe Illustrator 26.3.1, SVG Export Plug-In . SVG Version: 6.00 Build 0)  -->
<svg version="1.1" id="Layer_1" xmlns="http://www.w3.org/2000/svg" xmlns:xlink="http://www.w3.org/1999/xlink" x="0px" y="0px"
	 viewBox="0 0 25.1 30.3" style="enable-background:new 0 0 25.1 30.3;" xml:space="preserve">
<path d="M22.5,8.8C21.9,8.4,21,8,20.1,7.7c-0.2-3.2-0.8-7.4-2.6-7.7c-2-0.3-3.2,3.4-4.1,6.6c-1,0-2,0-3,0.1C9.3,4.3,7.5,1.1,6.1,1.5
	C4.5,1.9,4.8,5.3,5.2,8c-1,0.5-1.9,1-2.6,1.8c-2.9,2.8-2.8,7.5-2.2,10c0.6,2.9,5.2,8.6,8.2,10c1.6,0.8,7,0.7,8.7,0
	c3.3-1.4,6.4-9,6.4-9S27.5,11.8,22.5,8.8z M7.8,23.8c-1.1,0-1.9-1.6-1.9-3.5s0.9-3.5,1.9-3.5c1.1,0,1.9,1.6,1.9,3.5
	S8.9,23.8,7.8,23.8z M17.1,23.8c-1.1,0-1.9-1.6-1.9-3.5s0.9-3.5,1.9-3.5c1.1,0,1.9,1.6,1.9,3.5S18.2,23.8,17.1,23.8z"/>
</svg>
