<?xml version="1.0" encoding="utf-8"?>
<!-- Generator: Adobe Illustrator 26.3.1, SVG Export Plug-In . SVG Version: 6.00 Build 0)  -->
<svg version="1.1" id="Layer_1" xmlns="http://www.w3.org/2000/svg" xmlns:xlink="http://www.w3.org/1999/xlink" x="0px" y="0px"
	 viewBox="0 0 238.1 288.2" style="enable-background:new 0 0 238.1 288.2;" xml:space="preserve">
<style type="text/css">
	.st0{fill:#FFFFFF;}
	.st1{fill:#EDEDEE;}
	.st2{fill:none;stroke:#010101;stroke-width:0.25;stroke-miterlimit:10;}
	.st3{fill:none;stroke:#010101;stroke-width:0.25;stroke-miterlimit:10;stroke-dasharray:4,4;}
	.st4{fill:none;stroke:#010101;stroke-width:0.25;stroke-miterlimit:10;stroke-dasharray:4.2,4.2;}
	.st5{fill:none;stroke:#010101;stroke-width:0.25;stroke-miterlimit:10;stroke-dasharray:4.6667,4.6667;}
	.st6{fill:#8F8F8F;}
	.st7{fill:none;stroke:#8F8F8F;stroke-width:0.25;stroke-miterlimit:10;}
	.st8{fill:none;stroke:#A09F9F;stroke-width:0.25;stroke-miterlimit:10;}
	.st9{fill:none;stroke:#010101;stroke-width:0.25;stroke-miterlimit:10;stroke-dasharray:3.9508,3.9508;}
</style>
<rect x="0.4" y="0.1" class="st0" width="237.5" height="288"/>
<rect x="0" y="263.1" class="st1" width="238" height="25"/>
<rect x="0.1" y="0.1" class="st1" width="238" height="18"/>
<g>
	<g>
		<polyline class="st2" points="207.6,286.1 207.6,288.1 205.6,288.1 		"/>
		<line class="st3" x1="201.6" y1="288.1" x2="35.6" y2="288.1"/>
		<polyline class="st2" points="33.6,288.1 31.6,288.1 31.6,286.1 		"/>
		<line class="st4" x1="31.6" y1="281.9" x2="31.6" y2="267.2"/>
		<polyline class="st2" points="31.6,265.1 31.6,263.1 33.6,263.1 		"/>
		<line class="st3" x1="37.6" y1="263.1" x2="203.6" y2="263.1"/>
		<polyline class="st2" points="205.6,263.1 207.6,263.1 207.6,265.1 		"/>
		<line class="st4" x1="207.6" y1="269.3" x2="207.6" y2="284"/>
	</g>
</g>
<g>
	<g>
		<polyline class="st2" points="207.1,2.1 207.1,0.1 205.1,0.1 		"/>
		<line class="st3" x1="201.1" y1="0.1" x2="35.1" y2="0.1"/>
		<polyline class="st2" points="33.1,0.1 31.1,0.1 31.1,2.1 		"/>
		<line class="st5" x1="31.1" y1="6.8" x2="31.1" y2="13.8"/>
		<polyline class="st2" points="31.1,16.1 31.1,18.1 33.1,18.1 		"/>
		<line class="st3" x1="37.1" y1="18.1" x2="203.1" y2="18.1"/>
		<polyline class="st2" points="205.1,18.1 207.1,18.1 207.1,16.1 		"/>
		<line class="st5" x1="207.1" y1="11.5" x2="207.1" y2="4.5"/>
	</g>
</g>
<rect x="188.7" y="7.2" class="st6" width="18.4" height="4"/>
<rect x="168.8" y="7.2" class="st6" width="18.4" height="4"/>
<rect x="148.9" y="7.2" class="st6" width="18.4" height="4"/>
<rect x="129" y="7.2" class="st6" width="18.4" height="4"/>
<rect x="31.9" y="3.8" class="st6" width="18.4" height="10.7"/>
<rect x="0" y="112.1" class="st1" width="238.2" height="82"/>
<g>
	<g>
		<rect x="118.9" y="129.1" class="st6" width="38.5" height="3.7"/>
		<rect x="118.9" y="144.2" class="st6" width="80.1" height="3.6"/>
		<rect x="118.9" y="153.3" class="st6" width="80.1" height="3.6"/>
		<rect x="118.9" y="163.8" class="st6" width="80.1" height="3.6"/>
		<rect x="118.9" y="172.8" class="st6" width="80.1" height="3.6"/>
	</g>
	<rect x="37" y="124.8" class="st7" width="73" height="53.3"/>
</g>
<g>
	<g>
		<rect x="31.9" y="41.4" class="st6" width="38.5" height="3.7"/>
		<rect x="31.9" y="56.6" class="st6" width="75.1" height="3.6"/>
		<rect x="31.9" y="65.6" class="st6" width="75.1" height="3.6"/>
		<rect x="31.9" y="76.1" class="st6" width="75.1" height="3.6"/>
		<rect x="31.9" y="85.2" class="st6" width="75.1" height="3.6"/>
	</g>
	<rect x="125.2" y="39.6" class="st7" width="73" height="53.3"/>
</g>
<g>
	<g>
		<rect x="34.5" y="205.2" class="st6" width="38.5" height="3.7"/>
		<rect x="34.5" y="220.3" class="st6" width="75.1" height="3.6"/>
		<rect x="34.5" y="229.4" class="st6" width="75.1" height="3.6"/>
		<rect x="34.5" y="239.9" class="st6" width="75.1" height="3.6"/>
		<rect x="34.5" y="249" class="st6" width="75.1" height="3.6"/>
	</g>
	<rect x="127.8" y="203.4" class="st7" width="73" height="53.3"/>
</g>
<rect x="0.4" y="0.1" class="st8" width="237.5" height="288"/>
<g>
	<rect x="185" y="273.7" class="st6" width="18.4" height="4"/>
	<rect x="165.1" y="273.7" class="st6" width="18.4" height="4"/>
	<rect x="145.3" y="273.7" class="st6" width="18.4" height="4"/>
	<rect x="125.4" y="273.7" class="st6" width="18.4" height="4"/>
</g>
<g>
	<g>
		<polyline class="st2" points="207.1,261.1 207.1,263.1 205.1,263.1 		"/>
		<line class="st3" x1="201.1" y1="263.1" x2="35.1" y2="263.1"/>
		<polyline class="st2" points="33.1,263.1 31.1,263.1 31.1,261.1 		"/>
		<line class="st9" x1="31.1" y1="257.2" x2="31.1" y2="22.1"/>
		<polyline class="st2" points="31.1,20.1 31.1,18.1 33.1,18.1 		"/>
		<line class="st3" x1="37.1" y1="18.1" x2="203.1" y2="18.1"/>
		<polyline class="st2" points="205.1,18.1 207.1,18.1 207.1,20.1 		"/>
		<line class="st9" x1="207.1" y1="24.1" x2="207.1" y2="259.1"/>
	</g>
</g>
</svg>
