<?xml version="1.0" encoding="utf-8"?><svg xmlns="http://www.w3.org/2000/svg" xmlns:xlink="http://www.w3.org/1999/xlink"><symbol fill="none" viewBox="0 0 24 24" id="adjustments" xmlns="http://www.w3.org/2000/svg"><g clip-path="url(#aaa)" fill-rule="evenodd" clip-rule="evenodd" fill="#3B3B3B"><path d="M6 9a1 1 0 1 0 0 2 1 1 0 0 0 0-2Zm-3 1a3 3 0 1 1 6 0 3 3 0 0 1-6 0Z"/><path d="M6 3a1 1 0 0 1 1 1v4a1 1 0 0 1-2 0V4a1 1 0 0 1 1-1ZM6 11a1 1 0 0 1 1 1v8a1 1 0 1 1-2 0v-8a1 1 0 0 1 1-1ZM12 15a1 1 0 1 0 0 2 1 1 0 0 0 0-2Zm-3 1a3 3 0 1 1 6 0 3 3 0 0 1-6 0Z"/><path d="M12 3a1 1 0 0 1 1 1v10a1 1 0 1 1-2 0V4a1 1 0 0 1 1-1ZM12 17a1 1 0 0 1 1 1v2a1 1 0 1 1-2 0v-2a1 1 0 0 1 1-1ZM18 6a1 1 0 1 0 0 2 1 1 0 0 0 0-2Zm-3 1a3 3 0 1 1 6 0 3 3 0 0 1-6 0Z"/><path d="M18 3a1 1 0 0 1 1 1v1a1 1 0 1 1-2 0V4a1 1 0 0 1 1-1ZM18 8a1 1 0 0 1 1 1v11a1 1 0 1 1-2 0V9a1 1 0 0 1 1-1Z"/></g><defs><clipPath id="aaa"><path fill="#fff" d="M0 0h24v24H0z"/></clipPath></defs></symbol><symbol fill="none" stroke="currentColor" stroke-width="2" stroke-linecap="round" stroke-linejoin="round" class="abicon abicon-tabler abicons-tabler-outline abicon-tabler-affiliate" viewBox="0 0 24 24" id="affiliate" xmlns="http://www.w3.org/2000/svg"><path d="M0 0h24v24H0z" stroke="none"/><path d="m5.931 6.936 1.275 4.249m5.607 5.609 4.251 1.275M11.683 12.317l5.759-5.759M4 5.5a1.5 1.5 0 1 0 3 0 1.5 1.5 0 1 0-3 0M17 5.5a1.5 1.5 0 1 0 3 0 1.5 1.5 0 1 0-3 0M17 18.5a1.5 1.5 0 1 0 3 0 1.5 1.5 0 1 0-3 0M4 15.5a4.5 4.5 0 1 0 9 0 4.5 4.5 0 1 0-9 0"/></symbol><symbol fill="none" viewBox="0 0 24 24" id="alert" xmlns="http://www.w3.org/2000/svg"><g clip-path="url(#aea)" fill-rule="evenodd" clip-rule="evenodd" fill="#C3372C"><path d="M12 4a8 8 0 1 0 0 16 8 8 0 0 0 0-16ZM2 12C2 6.477 6.477 2 12 2s10 4.477 10 10-4.477 10-10 10S2 17.523 2 12Z"/><path d="M12 7a1 1 0 0 1 1 1v4a1 1 0 1 1-2 0V8a1 1 0 0 1 1-1ZM11 16a1 1 0 0 1 1-1h.01a1 1 0 1 1 0 2H12a1 1 0 0 1-1-1Z"/></g><defs><clipPath id="aea"><path fill="#fff" d="M0 0h24v24H0z"/></clipPath></defs></symbol><symbol fill="none" stroke="currentColor" stroke-width="2" stroke-linecap="round" stroke-linejoin="round" class="acicon acicon-tabler acicons-tabler-outline acicon-tabler-alert-circle" viewBox="0 0 24 24" id="alert-circle" xmlns="http://www.w3.org/2000/svg"><path d="M0 0h24v24H0z" stroke="none"/><path d="M3 12a9 9 0 1 0 18 0 9 9 0 0 0-18 0M12 8v4M12 16h.01"/></symbol><symbol fill="none" stroke="currentColor" stroke-width="2" stroke-linecap="round" stroke-linejoin="round" class="adicon adicon-tabler adicons-tabler-outline adicon-tabler-alert-triangle" viewBox="0 0 24 24" id="alert-triangle" xmlns="http://www.w3.org/2000/svg"><path d="M0 0h24v24H0z" stroke="none"/><path d="M12 9v4M10.363 3.591 2.257 17.125a1.914 1.914 0 0 0 1.636 2.871h16.214a1.914 1.914 0 0 0 1.636-2.87L13.637 3.59a1.914 1.914 0 0 0-3.274 0zM12 16h.01"/></symbol><symbol fill="none" viewBox="0 0 24 24" id="archive" xmlns="http://www.w3.org/2000/svg"><g clip-path="url(#afa)" fill-rule="evenodd" clip-rule="evenodd" fill="#3B3B3B"><path d="M2 6a3 3 0 0 1 3-3h14a3 3 0 1 1 0 6H5a3 3 0 0 1-3-3Zm3-1a1 1 0 0 0 0 2h14a1 1 0 1 0 0-2H5Z"/><path d="M5 7a1 1 0 0 1 1 1v10a1 1 0 0 0 1 1h10a1 1 0 0 0 1-1V8a1 1 0 1 1 2 0v10a3 3 0 0 1-3 3H7a3 3 0 0 1-3-3V8a1 1 0 0 1 1-1Z"/><path d="M9 12a1 1 0 0 1 1-1h4a1 1 0 1 1 0 2h-4a1 1 0 0 1-1-1Z"/></g><defs><clipPath id="afa"><path fill="#fff" d="M0 0h24v24H0z"/></clipPath></defs></symbol><symbol fill="none" stroke="currentColor" stroke-width="2" stroke-linecap="round" stroke-linejoin="round" class="agicon agicon-tabler agicons-tabler-outline agicon-tabler-arrow-back-up" viewBox="0 0 24 24" id="arrow-back-up" xmlns="http://www.w3.org/2000/svg"><path d="M0 0h24v24H0z" stroke="none"/><path d="m9 14-4-4 4-4"/><path d="M5 10h11a4 4 0 1 1 0 8h-1"/></symbol><symbol fill="none" viewBox="0 0 24 24" id="arrow-down" xmlns="http://www.w3.org/2000/svg"><g clip-path="url(#aha)" fill-rule="evenodd" clip-rule="evenodd" fill="#3B3B3B"><path d="M12 4a1 1 0 0 1 1 1v14a1 1 0 1 1-2 0V5a1 1 0 0 1 1-1Z"/><path d="M18.707 12.293a1 1 0 0 1 0 1.414l-6 6a1 1 0 0 1-1.414-1.414l6-6a1 1 0 0 1 1.414 0Z"/><path d="M5.293 12.293a1 1 0 0 1 1.414 0l6 6a1 1 0 0 1-1.414 1.414l-6-6a1 1 0 0 1 0-1.414Z"/></g><defs><clipPath id="aha"><path fill="#fff" d="M0 0h24v24H0z"/></clipPath></defs></symbol><symbol fill="none" viewBox="0 0 24 24" id="arrow-left" xmlns="http://www.w3.org/2000/svg"><g clip-path="url(#aia)" fill-rule="evenodd" clip-rule="evenodd" fill="#3B3B3B"><path d="M4 12a1 1 0 0 1 1-1h14a1 1 0 1 1 0 2H5a1 1 0 0 1-1-1Z"/><path d="M4.293 11.293a1 1 0 0 1 1.414 0l6 6a1 1 0 0 1-1.414 1.414l-6-6a1 1 0 0 1 0-1.414Z"/><path d="M11.707 5.293a1 1 0 0 1 0 1.414l-6 6a1 1 0 0 1-1.414-1.414l6-6a1 1 0 0 1 1.414 0Z"/></g><defs><clipPath id="aia"><path fill="#fff" d="M0 0h24v24H0z"/></clipPath></defs></symbol><symbol fill="none" viewBox="0 0 24 24" id="arrow-right" xmlns="http://www.w3.org/2000/svg"><g clip-path="url(#aja)" fill-rule="evenodd" clip-rule="evenodd" fill="#3B3B3B"><path d="M4 12a1 1 0 0 1 1-1h14a1 1 0 1 1 0 2H5a1 1 0 0 1-1-1Z"/><path d="M19.707 11.293a1 1 0 0 1 0 1.414l-6 6a1 1 0 0 1-1.414-1.414l6-6a1 1 0 0 1 1.414 0Z"/><path d="M12.293 5.293a1 1 0 0 1 1.414 0l6 6a1 1 0 0 1-1.414 1.414l-6-6a1 1 0 0 1 0-1.414Z"/></g><defs><clipPath id="aja"><path fill="#fff" d="M0 0h24v24H0z"/></clipPath></defs></symbol><symbol fill="none" viewBox="0 0 24 24" id="arrow-up" xmlns="http://www.w3.org/2000/svg"><g clip-path="url(#aka)" fill-rule="evenodd" clip-rule="evenodd" fill="#3B3B3B"><path d="M12 4a1 1 0 0 1 1 1v14a1 1 0 1 1-2 0V5a1 1 0 0 1 1-1Z"/><path d="M11.293 4.293a1 1 0 0 1 1.414 0l6 6a1 1 0 0 1-1.414 1.414l-6-6a1 1 0 0 1 0-1.414Z"/><path d="M12.707 4.293a1 1 0 0 1 0 1.414l-6 6a1 1 0 0 1-1.414-1.414l6-6a1 1 0 0 1 1.414 0Z"/></g><defs><clipPath id="aka"><path fill="#fff" d="M0 0h24v24H0z"/></clipPath></defs></symbol><symbol fill="none" viewBox="0 0 24 24" id="ascending" xmlns="http://www.w3.org/2000/svg"><g clip-path="url(#ala)"><path fill-rule="evenodd" clip-rule="evenodd" d="M11.293 9.293a1 1 0 0 1 1.414 0l5 5a1 1 0 0 1-1.414 1.414L12 11.414l-4.293 4.293a1 1 0 0 1-1.414-1.414l5-5Z" fill="#3B3B3B"/></g><defs><clipPath id="ala"><path fill="#fff" d="M0 0h24v24H0z"/></clipPath></defs></symbol><symbol fill="none" stroke="currentColor" stroke-width="2" stroke-linecap="round" stroke-linejoin="round" class="anicon anicon-tabler anicons-tabler-outline anicon-tabler-bell" viewBox="0 0 24 24" id="bell" xmlns="http://www.w3.org/2000/svg"><path d="M0 0h24v24H0z" stroke="none"/><path d="M10 5a2 2 0 1 1 4 0 7 7 0 0 1 4 6v3a4 4 0 0 0 2 3H4a4 4 0 0 0 2-3v-3a7 7 0 0 1 4-6M9 17v1a3 3 0 0 0 6 0v-1"/></symbol><symbol fill="none" stroke="currentColor" stroke-width="2" stroke-linecap="round" stroke-linejoin="round" class="amicon amicon-tabler amicons-tabler-outline amicon-tabler-bell-off" viewBox="0 0 24 24" id="bell-off" xmlns="http://www.w3.org/2000/svg"><path d="M0 0h24v24H0z" stroke="none"/><path d="M9.346 5.353c.21-.129.428-.246.654-.353a2 2 0 1 1 4 0 7 7 0 0 1 4 6v3m-1 3H4a4 4 0 0 0 2-3v-3a6.996 6.996 0 0 1 1.273-3.707M9 17v1a3 3 0 0 0 6 0v-1M3 3l18 18"/></symbol><symbol fill="none" viewBox="0 0 24 24" id="building" xmlns="http://www.w3.org/2000/svg"><g clip-path="url(#aoa)"><path fill-rule="evenodd" clip-rule="evenodd" d="M7 4a1 1 0 0 0-1 1v15h12V5a1 1 0 0 0-1-1H7Zm13 16V5a3 3 0 0 0-3-3H7a3 3 0 0 0-3 3v15H3a1 1 0 1 0 0 2h18a1 1 0 1 0 0-2h-1ZM8 8a1 1 0 0 1 1-1h1a1 1 0 1 1 0 2H9a1 1 0 0 1-1-1Zm5 0a1 1 0 0 1 1-1h1a1 1 0 1 1 0 2h-1a1 1 0 0 1-1-1Zm-5 4a1 1 0 0 1 1-1h1a1 1 0 1 1 0 2H9a1 1 0 0 1-1-1Zm5 0a1 1 0 0 1 1-1h1a1 1 0 1 1 0 2h-1a1 1 0 0 1-1-1Zm-5 4a1 1 0 0 1 1-1h1a1 1 0 1 1 0 2H9a1 1 0 0 1-1-1Zm5 0a1 1 0 0 1 1-1h1a1 1 0 1 1 0 2h-1a1 1 0 0 1-1-1Z" fill="#3B3B3B"/></g><defs><clipPath id="aoa"><path fill="#fff" d="M0 0h24v24H0z"/></clipPath></defs></symbol><symbol fill="none" stroke="currentColor" stroke-width="2" stroke-linecap="round" stroke-linejoin="round" class="apicon apicon-tabler apicons-tabler-outline apicon-tabler-bulb" viewBox="0 0 24 24" id="bulb" xmlns="http://www.w3.org/2000/svg"><path d="M0 0h24v24H0z" stroke="none"/><path d="M3 12h1m8-9v1m8 8h1M5.6 5.6l.7.7m12.1-.7-.7.7M9 16a5 5 0 1 1 6 0 3.5 3.5 0 0 0-1 3 2 2 0 0 1-4 0 3.5 3.5 0 0 0-1-3M9.7 17h4.6"/></symbol><symbol fill="none" viewBox="0 0 24 24" id="calendar" xmlns="http://www.w3.org/2000/svg"><g clip-path="url(#aqa)" fill-rule="evenodd" clip-rule="evenodd" fill="#3B3B3B"><path d="M3 7a3 3 0 0 1 3-3h12a3 3 0 0 1 3 3v12a3 3 0 0 1-3 3H6a3 3 0 0 1-3-3V7Zm3-1a1 1 0 0 0-1 1v12a1 1 0 0 0 1 1h12a1 1 0 0 0 1-1V7a1 1 0 0 0-1-1H6Z"/><path d="M16 2a1 1 0 0 1 1 1v4a1 1 0 1 1-2 0V3a1 1 0 0 1 1-1ZM8 2a1 1 0 0 1 1 1v4a1 1 0 0 1-2 0V3a1 1 0 0 1 1-1ZM3 11a1 1 0 0 1 1-1h16a1 1 0 1 1 0 2H4a1 1 0 0 1-1-1ZM7 15a1 1 0 0 1 1-1h2a1 1 0 0 1 1 1v2a1 1 0 0 1-1 1H8a1 1 0 0 1-1-1v-2Z"/></g><defs><clipPath id="aqa"><path fill="#fff" d="M0 0h24v24H0z"/></clipPath></defs></symbol><symbol fill="none" viewBox="0 0 24 24" id="check" xmlns="http://www.w3.org/2000/svg"><g clip-path="url(#asa)"><path fill-rule="evenodd" clip-rule="evenodd" d="M20.707 6.293a1 1 0 0 1 0 1.414l-10 10a1 1 0 0 1-1.414 0l-5-5a1 1 0 1 1 1.414-1.414L10 15.586l9.293-9.293a1 1 0 0 1 1.414 0Z" fill="#3B3B3B"/></g><defs><clipPath id="asa"><path fill="#fff" d="M0 0h24v24H0z"/></clipPath></defs></symbol><symbol fill="none" viewBox="0 0 24 24" id="check-circle" xmlns="http://www.w3.org/2000/svg"><g clip-path="url(#ara)" fill-rule="evenodd" clip-rule="evenodd" fill="#1B9D3F"><path d="M12 4a8 8 0 1 0 0 16 8 8 0 0 0 0-16ZM2 12C2 6.477 6.477 2 12 2s10 4.477 10 10-4.477 10-10 10S2 17.523 2 12Z"/><path d="M15.707 9.293a1 1 0 0 1 0 1.414l-4 4a1 1 0 0 1-1.414 0l-2-2a1 1 0 1 1 1.414-1.414L11 12.586l3.293-3.293a1 1 0 0 1 1.414 0Z"/></g><defs><clipPath id="ara"><path fill="#fff" d="M0 0h24v24H0z"/></clipPath></defs></symbol><symbol fill="none" viewBox="0 0 24 24" id="chevron_down" xmlns="http://www.w3.org/2000/svg"><g clip-path="url(#ata)"><path fill-rule="evenodd" clip-rule="evenodd" d="M5.293 8.293a1 1 0 0 1 1.414 0L12 13.586l5.293-5.293a1 1 0 1 1 1.414 1.414l-6 6a1 1 0 0 1-1.414 0l-6-6a1 1 0 0 1 0-1.414Z" fill="#3B3B3B"/></g><defs><clipPath id="ata"><path fill="#fff" d="M0 0h24v24H0z"/></clipPath></defs></symbol><symbol fill="none" viewBox="0 0 24 24" id="chevron_left" xmlns="http://www.w3.org/2000/svg"><g clip-path="url(#aua)"><path fill-rule="evenodd" clip-rule="evenodd" d="M15.707 5.293a1 1 0 0 1 0 1.414L10.414 12l5.293 5.293a1 1 0 0 1-1.414 1.414l-6-6a1 1 0 0 1 0-1.414l6-6a1 1 0 0 1 1.414 0Z" fill="#3B3B3B"/></g><defs><clipPath id="aua"><path fill="#fff" d="M0 0h24v24H0z"/></clipPath></defs></symbol><symbol fill="none" viewBox="0 0 24 24" id="chevron_right" xmlns="http://www.w3.org/2000/svg"><g clip-path="url(#ava)"><path fill-rule="evenodd" clip-rule="evenodd" d="M8.293 5.293a1 1 0 0 1 1.414 0l6 6a1 1 0 0 1 0 1.414l-6 6a1 1 0 0 1-1.414-1.414L13.586 12 8.293 6.707a1 1 0 0 1 0-1.414Z" fill="#3B3B3B"/></g><defs><clipPath id="ava"><path fill="#fff" d="M0 0h24v24H0z"/></clipPath></defs></symbol><symbol fill="none" viewBox="0 0 24 24" id="chevron_up" xmlns="http://www.w3.org/2000/svg"><g clip-path="url(#awa)"><path fill-rule="evenodd" clip-rule="evenodd" d="M11.293 8.293a1 1 0 0 1 1.414 0l6 6a1 1 0 0 1-1.414 1.414L12 10.414l-5.293 5.293a1 1 0 0 1-1.414-1.414l6-6Z" fill="#3B3B3B"/></g><defs><clipPath id="awa"><path fill="#fff" d="M0 0h24v24H0z"/></clipPath></defs></symbol><symbol fill="none" stroke="currentColor" stroke-width="2" stroke-linecap="round" stroke-linejoin="round" class="axicon axicon-tabler axicons-tabler-outline axicon-tabler-circle-check" viewBox="0 0 24 24" id="circle-check" xmlns="http://www.w3.org/2000/svg"><path d="M0 0h24v24H0z" stroke="none"/><path d="M3 12a9 9 0 1 0 18 0 9 9 0 1 0-18 0"/><path d="m9 12 2 2 4-4"/></symbol><symbol fill="none" viewBox="0 0 24 24" id="circle-cross" xmlns="http://www.w3.org/2000/svg"><g clip-path="url(#aya)" fill="#C3372C"><path fill-rule="evenodd" clip-rule="evenodd" d="M12 4a8 8 0 1 0 0 16 8 8 0 0 0 0-16ZM2 12C2 6.477 6.477 2 12 2s10 4.477 10 10-4.477 10-10 10S2 17.523 2 12Z"/><path d="M8.173 9.587a1 1 0 0 1 1.414-1.414l6.243 6.242a1 1 0 1 1-1.415 1.415L8.174 9.587Z"/><path d="M14.415 8.173a1 1 0 1 1 1.415 1.414L9.587 15.83a1 1 0 0 1-1.414-1.414l6.242-6.243Z"/></g><defs><clipPath id="aya"><path fill="#fff" d="M0 0h24v24H0z"/></clipPath></defs></symbol><symbol fill="none" viewBox="0 0 24 24" id="circle-dash" xmlns="http://www.w3.org/2000/svg"><g clip-path="url(#aza)"><path d="M20 12a8 8 0 1 0-15.999.002A8 8 0 0 0 20 12Zm-5-1a1 1 0 1 1 0 2H9a1 1 0 1 1 0-2h6Zm7 1a10.002 10.002 0 0 1-6.173 9.24A10.002 10.002 0 0 1 8.173 2.76 10.001 10.001 0 0 1 22 12Z" fill="#3B3B3B"/></g><defs><clipPath id="aza"><path fill="#fff" d="M0 0h24v24H0z"/></clipPath></defs></symbol><symbol fill="none" stroke="currentColor" stroke-width="2" stroke-linecap="round" stroke-linejoin="round" class="baicon baicon-tabler baicons-tabler-outline baicon-tabler-circle-x" viewBox="0 0 24 24" id="circle-x" xmlns="http://www.w3.org/2000/svg"><path d="M0 0h24v24H0z" stroke="none"/><path d="M3 12a9 9 0 1 0 18 0 9 9 0 1 0-18 0M10 10l4 4m0-4-4 4"/></symbol><symbol fill="none" stroke="currentColor" stroke-width="2" stroke-linecap="round" stroke-linejoin="round" class="bbicon bbicon-tabler bbicons-tabler-outline bbicon-tabler-clock" viewBox="0 0 24 24" id="clock" xmlns="http://www.w3.org/2000/svg"><path d="M0 0h24v24H0z" stroke="none"/><path d="M3 12a9 9 0 1 0 18 0 9 9 0 0 0-18 0"/><path d="M12 7v5l3 3"/></symbol><symbol fill="none" viewBox="0 0 24 24" id="close" xmlns="http://www.w3.org/2000/svg"><g clip-path="url(#bca)" fill-rule="evenodd" clip-rule="evenodd" fill="#3B3B3B"><path d="M18.707 5.293a1 1 0 0 1 0 1.414l-12 12a1 1 0 0 1-1.414-1.414l12-12a1 1 0 0 1 1.414 0Z"/><path d="M5.293 5.293a1 1 0 0 1 1.414 0l12 12a1 1 0 0 1-1.414 1.414l-12-12a1 1 0 0 1 0-1.414Z"/></g><defs><clipPath id="bca"><path fill="#fff" d="M0 0h24v24H0z"/></clipPath></defs></symbol><symbol fill="none" viewBox="0 0 24 24" id="confirmation" xmlns="http://www.w3.org/2000/svg"><g clip-path="url(#bda)" fill-rule="evenodd" clip-rule="evenodd" fill="#1B9D3F"><path d="M12 4a8 8 0 1 0 0 16 8 8 0 0 0 0-16ZM2 12C2 6.477 6.477 2 12 2s10 4.477 10 10-4.477 10-10 10S2 17.523 2 12Z"/><path d="M15.707 9.293a1 1 0 0 1 0 1.414l-4 4a1 1 0 0 1-1.414 0l-2-2a1 1 0 1 1 1.414-1.414L11 12.586l3.293-3.293a1 1 0 0 1 1.414 0Z"/></g><defs><clipPath id="bda"><path fill="#fff" d="M0 0h24v24H0z"/></clipPath></defs></symbol><symbol fill="none" viewBox="0 0 24 24" id="descending" xmlns="http://www.w3.org/2000/svg"><g clip-path="url(#bea)"><path fill-rule="evenodd" clip-rule="evenodd" d="M12.707 15.707a1 1 0 0 1-1.414 0l-5-5a1 1 0 0 1 1.414-1.414L12 13.586l4.293-4.293a1 1 0 1 1 1.414 1.414l-5 5Z" fill="#3B3B3B"/></g><defs><clipPath id="bea"><path fill="#fff" d="M0 0h24v24H0z"/></clipPath></defs></symbol><symbol fill="none" viewBox="0 0 24 24" id="dots" xmlns="http://www.w3.org/2000/svg"><g clip-path="url(#bha)"><path d="M3 12a2 2 0 1 1 4 0 2 2 0 0 1-4 0Zm7 0a2 2 0 1 1 4 0 2 2 0 0 1-4 0Zm7 0a2 2 0 1 1 4 0 2 2 0 0 1-4 0Z" fill="#3B3B3B"/></g><defs><clipPath id="bha"><path fill="#fff" d="M0 0h24v24H0z"/></clipPath></defs></symbol><symbol fill="none" stroke="currentColor" stroke-width="2" stroke-linecap="round" stroke-linejoin="round" class="bficon bficon-tabler bficons-tabler-outline bficon-tabler-dots-circle-horizontal" viewBox="0 0 24 24" id="dots-circle-horizontal" xmlns="http://www.w3.org/2000/svg"><path d="M0 0h24v24H0z" stroke="none"/><path d="M3 12a9 9 0 1 0 18 0 9 9 0 1 0-18 0M8 12v.01M12 12v.01M16 12v.01"/></symbol><symbol fill="none" stroke="currentColor" stroke-width="2" stroke-linecap="round" stroke-linejoin="round" class="bgicon bgicon-tabler bgicons-tabler-outline bgicon-tabler-dots-vertical" viewBox="0 0 24 24" id="dots-vertical" xmlns="http://www.w3.org/2000/svg"><path d="M0 0h24v24H0z" stroke="none"/><path d="M11 12a1 1 0 1 0 2 0 1 1 0 1 0-2 0M11 19a1 1 0 1 0 2 0 1 1 0 1 0-2 0M11 5a1 1 0 1 0 2 0 1 1 0 1 0-2 0"/></symbol><symbol fill="none" viewBox="0 0 24 24" id="download" xmlns="http://www.w3.org/2000/svg"><g clip-path="url(#bia)" fill-rule="evenodd" clip-rule="evenodd" fill="#3B3B3B"><path d="M3 20a1 1 0 0 1 1-1h16a1 1 0 1 1 0 2H4a1 1 0 0 1-1-1ZM12 3a1 1 0 0 1 1 1v10a1 1 0 1 1-2 0V4a1 1 0 0 1 1-1Z"/><path d="M16.707 9.293a1 1 0 0 1 0 1.414l-4 4a1 1 0 0 1-1.414-1.414l4-4a1 1 0 0 1 1.414 0Z"/><path d="M7.293 9.293a1 1 0 0 1 1.414 0l4 4a1 1 0 0 1-1.414 1.414l-4-4a1 1 0 0 1 0-1.414Z"/></g><defs><clipPath id="bia"><path fill="#fff" d="M0 0h24v24H0z"/></clipPath></defs></symbol><symbol fill="none" stroke="currentColor" stroke-width="2" stroke-linecap="round" stroke-linejoin="round" class="bjicon bjicon-tabler bjicons-tabler-outline bjicon-tabler-edit" viewBox="0 0 24 24" id="edit" xmlns="http://www.w3.org/2000/svg"><path d="M0 0h24v24H0z" stroke="none"/><path d="M7 7H6a2 2 0 0 0-2 2v9a2 2 0 0 0 2 2h9a2 2 0 0 0 2-2v-1"/><path d="M20.385 6.585a2.1 2.1 0 0 0-2.97-2.97L9 12v3h3l8.385-8.415zM16 5l3 3"/></symbol><symbol fill="none" stroke="currentColor" stroke-width="2" stroke-linecap="round" stroke-linejoin="round" class="bkicon bkicon-tabler bkicons-tabler-outline bkicon-tabler-external-link" viewBox="0 0 24 24" id="external-link" xmlns="http://www.w3.org/2000/svg"><path d="M0 0h24v24H0z" stroke="none"/><path d="M12 6H6a2 2 0 0 0-2 2v10a2 2 0 0 0 2 2h10a2 2 0 0 0 2-2v-6M11 13l9-9M15 4h5v5"/></symbol><symbol fill="none" stroke="currentColor" stroke-width="2" stroke-linecap="round" stroke-linejoin="round" class="bnicon bnicon-tabler bnicons-tabler-outline bnicon-tabler-eye" viewBox="0 0 24 24" id="eye" xmlns="http://www.w3.org/2000/svg"><path d="M0 0h24v24H0z" stroke="none"/><path d="M10 12a2 2 0 1 0 4 0 2 2 0 0 0-4 0"/><path d="M21 12c-2.4 4-5.4 6-9 6-3.6 0-6.6-2-9-6 2.4-4 5.4-6 9-6 3.6 0 6.6 2 9 6"/></symbol><symbol fill="none" stroke="currentColor" stroke-width="2" stroke-linecap="round" stroke-linejoin="round" class="blicon blicon-tabler blicons-tabler-outline blicon-tabler-eye-off" viewBox="0 0 24 24" id="eye-off" xmlns="http://www.w3.org/2000/svg"><path d="M0 0h24v24H0z" stroke="none"/><path d="M10.585 10.587a2 2 0 0 0 2.829 2.828"/><path d="M16.681 16.673A8.717 8.717 0 0 1 12 18c-3.6 0-6.6-2-9-6 1.272-2.12 2.712-3.678 4.32-4.674m2.86-1.146A9.055 9.055 0 0 1 12 6c3.6 0 6.6 2 9 6-.666 1.11-1.379 2.067-2.138 2.87M3 3l18 18"/></symbol><symbol fill="none" stroke="currentColor" stroke-width="2" stroke-linecap="round" stroke-linejoin="round" class="bmicon bmicon-tabler bmicons-tabler-outline bmicon-tabler-eye-plus" viewBox="0 0 24 24" id="eye-plus" xmlns="http://www.w3.org/2000/svg"><path d="M0 0h24v24H0z" stroke="none"/><path d="M10 12a2 2 0 1 0 4 0 2 2 0 0 0-4 0"/><path d="M12 18c-3.6 0-6.6-2-9-6 2.4-4 5.4-6 9-6 3.6 0 6.6 2 9 6M16 19h6M19 16v6"/></symbol><symbol fill="none" viewBox="0 0 24 24" id="file" xmlns="http://www.w3.org/2000/svg"><g clip-path="url(#bqa)" fill-rule="evenodd" clip-rule="evenodd" fill="#3B3B3B"><path d="M14 2a1 1 0 0 1 1 1v4h4a1 1 0 1 1 0 2h-4a2 2 0 0 1-2-2V3a1 1 0 0 1 1-1Z"/><path d="M7 4a1 1 0 0 0-1 1v14a1 1 0 0 0 1 1h10a1 1 0 0 0 1-1V8.414L13.586 4H7ZM4 5a3 3 0 0 1 3-3h7a1 1 0 0 1 .707.293l5 5A1 1 0 0 1 20 8v11a3 3 0 0 1-3 3H7a3 3 0 0 1-3-3V5Z"/><path d="M8 9a1 1 0 0 1 1-1h1a1 1 0 1 1 0 2H9a1 1 0 0 1-1-1ZM8 13a1 1 0 0 1 1-1h6a1 1 0 1 1 0 2H9a1 1 0 0 1-1-1ZM8 17a1 1 0 0 1 1-1h6a1 1 0 1 1 0 2H9a1 1 0 0 1-1-1Z"/></g><defs><clipPath id="bqa"><path fill="#fff" d="M0 0h24v24H0z"/></clipPath></defs></symbol><symbol fill="none" viewBox="0 0 24 24" id="file-alert" xmlns="http://www.w3.org/2000/svg"><g clip-path="url(#boa)" fill-rule="evenodd" clip-rule="evenodd" fill="#3B3B3B"><path d="M14 2a1 1 0 0 1 1 1v4h4a1 1 0 1 1 0 2h-4a2 2 0 0 1-2-2V3a1 1 0 0 1 1-1Z"/><path d="M7 4a1 1 0 0 0-1 1v14a1 1 0 0 0 1 1h10a1 1 0 0 0 1-1V8.414L13.586 4H7ZM4 5a3 3 0 0 1 3-3h7a1 1 0 0 1 .707.293l5 5A1 1 0 0 1 20 8v11a3 3 0 0 1-3 3H7a3 3 0 0 1-3-3V5Z"/><path d="M11 17a1 1 0 0 1 1-1h.01a1 1 0 1 1 0 2H12a1 1 0 0 1-1-1ZM12 10a1 1 0 0 1 1 1v3a1 1 0 1 1-2 0v-3a1 1 0 0 1 1-1Z"/></g><defs><clipPath id="boa"><path fill="#fff" d="M0 0h24v24H0z"/></clipPath></defs></symbol><symbol fill="none" stroke="currentColor" stroke-width="2" stroke-linecap="round" stroke-linejoin="round" class="bpicon bpicon-tabler bpicons-tabler-outline bpicon-tabler-file-upload" viewBox="0 0 24 24" id="file-upload" xmlns="http://www.w3.org/2000/svg"><path d="M0 0h24v24H0z" stroke="none"/><path d="M14 3v4a1 1 0 0 0 1 1h4"/><path d="M17 21H7a2 2 0 0 1-2-2V5a2 2 0 0 1 2-2h7l5 5v11a2 2 0 0 1-2 2zM12 11v6"/><path d="M9.5 13.5 12 11l2.5 2.5"/></symbol><symbol fill="none" viewBox="0 0 24 24" id="folder" xmlns="http://www.w3.org/2000/svg"><g clip-path="url(#bra)"><path fill-rule="evenodd" clip-rule="evenodd" d="M5 5a1 1 0 0 0-1 1v11a1 1 0 0 0 1 1h14a1 1 0 0 0 1-1V9a1 1 0 0 0-1-1h-7a1 1 0 0 1-.707-.293L8.586 5H5ZM2 6a3 3 0 0 1 3-3h4a1 1 0 0 1 .707.293L12.414 6H19a3 3 0 0 1 3 3v8a3 3 0 0 1-3 3H5a3 3 0 0 1-3-3V6Z" fill="#3B3B3B"/></g><defs><clipPath id="bra"><path fill="#fff" d="M0 0h24v24H0z"/></clipPath></defs></symbol><symbol fill="none" viewBox="0 0 24 24" id="grid" xmlns="http://www.w3.org/2000/svg"><g clip-path="url(#bsa)"><path fill-rule="evenodd" clip-rule="evenodd" d="M3.586 3.586A2 2 0 0 1 5 3h4a2 2 0 0 1 2 2v4a2 2 0 0 1-2 2H5a2 2 0 0 1-2-2V5a2 2 0 0 1 .586-1.414ZM9 5H5v4h4V5Zm4.586-1.414A2 2 0 0 1 15 3h4a2 2 0 0 1 2 2v4a2 2 0 0 1-2 2h-4a2 2 0 0 1-2-2V5a2 2 0 0 1 .586-1.414ZM19 5h-4v4h4V5ZM3.586 13.586A2 2 0 0 1 5 13h4a2 2 0 0 1 2 2v4a2 2 0 0 1-2 2H5a2 2 0 0 1-2-2v-4a2 2 0 0 1 .586-1.414ZM9 15H5v4h4v-4Zm4.586-1.414A2 2 0 0 1 15 13h4a2 2 0 0 1 2 2v4a2 2 0 0 1-2 2h-4a2 2 0 0 1-2-2v-4a2 2 0 0 1 .586-1.414ZM19 15h-4v4h4v-4Z" fill="#3B3B3B"/></g><defs><clipPath id="bsa"><path fill="#fff" d="M0 0h24v24H0z"/></clipPath></defs></symbol><symbol fill="none" viewBox="0 0 24 24" id="hamburger" xmlns="http://www.w3.org/2000/svg"><g clip-path="url(#bta)" fill-rule="evenodd" clip-rule="evenodd" fill="#3B3B3B"><path d="M3 6a1 1 0 0 1 1-1h16a1 1 0 1 1 0 2H4a1 1 0 0 1-1-1ZM3 12a1 1 0 0 1 1-1h16a1 1 0 1 1 0 2H4a1 1 0 0 1-1-1ZM3 18a1 1 0 0 1 1-1h16a1 1 0 1 1 0 2H4a1 1 0 0 1-1-1Z"/></g><defs><clipPath id="bta"><path fill="#fff" d="M0 0h24v24H0z"/></clipPath></defs></symbol><symbol fill="none" viewBox="0 0 24 24" id="heart" xmlns="http://www.w3.org/2000/svg"><g clip-path="url(#bua)"><path fill-rule="evenodd" clip-rule="evenodd" d="M11.197 7.603a4 4 0 1 0-6 5.252l.007.006L12 19.593l6.796-6.732a1 1 0 0 1 .064-.058 4 4 0 1 0-6.06-5.196 1 1 0 0 1-1.603-.004Zm8.938 6.748-7.431 7.36a1 1 0 0 1-1.408 0L3.8 14.285a6 6 0 0 1 8.205-8.754 6 6 0 0 1 8.197 8.76l-.066.059Z" fill="#3B3B3B"/></g><defs><clipPath id="bua"><path fill="#fff" d="M0 0h24v24H0z"/></clipPath></defs></symbol><symbol fill="none" viewBox="0 0 24 24" id="home" xmlns="http://www.w3.org/2000/svg"><g clip-path="url(#bva)"><path d="M14 15a1 1 0 0 0-1-1h-2a1 1 0 0 0-1 1v5h4v-5Zm6 4a3 3 0 0 1-3 3H7a3 3 0 0 1-3-3v-6H3a1 1 0 0 1-.707-1.707l9-9 .076-.068a1 1 0 0 1 1.338.068l9 9A1 1 0 0 1 21 13h-1v6Zm-4 1h1a1 1 0 0 0 1-1v-7a1 1 0 0 1 .65-.937L12 4.414l-6.65 6.65A1 1 0 0 1 6 12v7a1 1 0 0 0 1 1h1v-5a3 3 0 0 1 3-3h2a3 3 0 0 1 3 3v5Z" fill="#3B3B3B"/></g><defs><clipPath id="bva"><path fill="#fff" d="M0 0h24v24H0z"/></clipPath></defs></symbol><symbol fill="none" viewBox="0 0 24 24" id="image" xmlns="http://www.w3.org/2000/svg"><g clip-path="url(#bwa)"><path fill-rule="evenodd" clip-rule="evenodd" d="M6 4a2 2 0 0 0-2 2v7.586l3.293-3.293.014-.014c.614-.59 1.37-.949 2.193-.949s1.58.358 2.193.95l.014.013L14 12.586l.293-.293.014-.014c.614-.59 1.37-.949 2.193-.949s1.58.358 2.193.95l.014.013L20 13.586V6a2 2 0 0 0-2-2H6Zm16 11.999V6a4 4 0 0 0-4-4H6a4 4 0 0 0-4 4v12a4 4 0 0 0 4 4h12a4 4 0 0 0 4-4v-2.001Zm-2 .415-2.7-2.7c-.311-.297-.588-.384-.8-.384-.212 0-.489.087-.8.384l-.286.286 1.293 1.293a1 1 0 0 1-1.414 1.414L10.3 11.714c-.311-.297-.588-.384-.8-.384-.212 0-.489.087-.8.384l-4.7 4.7V18a2 2 0 0 0 2 2h12a2 2 0 0 0 2-2v-1.586ZM14 8a1 1 0 0 1 1-1h.01a1 1 0 1 1 0 2H15a1 1 0 0 1-1-1Z" fill="#3B3B3B"/></g><defs><clipPath id="bwa"><path fill="#fff" d="M0 0h24v24H0z"/></clipPath></defs></symbol><symbol fill="none" viewBox="0 0 24 24" id="information" xmlns="http://www.w3.org/2000/svg"><g clip-path="url(#bxa)" fill-rule="evenodd" clip-rule="evenodd" fill="#3B3B3B"><path d="M12 4a8 8 0 1 0 0 16 8 8 0 0 0 0-16ZM2 12C2 6.477 6.477 2 12 2s10 4.477 10 10-4.477 10-10 10S2 17.523 2 12Z"/><path d="M11 8a1 1 0 0 1 1-1h.01a1 1 0 1 1 0 2H12a1 1 0 0 1-1-1ZM10 12a1 1 0 0 1 1-1h1a1 1 0 0 1 1 1v3a1 1 0 1 1 0 2h-1a1 1 0 0 1-1-1v-3a1 1 0 0 1-1-1Z"/></g><defs><clipPath id="bxa"><path fill="#fff" d="M0 0h24v24H0z"/></clipPath></defs></symbol><symbol fill="none" viewBox="0 0 24 24" id="link" xmlns="http://www.w3.org/2000/svg"><g clip-path="url(#bya)" fill-rule="evenodd" clip-rule="evenodd" fill="#3B3B3B"><path d="M13.293 4.293a4.536 4.536 0 0 1 6.414 6.414l-3.997 3.997a4.5 4.5 0 0 1-6.424-.004 1 1 0 0 1 1.428-1.4 2.5 2.5 0 0 0 3.572 0l.007-.007 4-4a2.536 2.536 0 1 0-3.586-3.586l-.5.5a1 1 0 1 1-1.414-1.414l.5-.5Z"/><path d="M8.29 9.296a4.5 4.5 0 0 1 6.424.004 1 1 0 0 1-1.428 1.4 2.5 2.5 0 0 0-3.572 0l-.007.007-4 4a2.536 2.536 0 0 0 3.586 3.586l.5-.5a1 1 0 0 1 1.414 1.414l-.5.5a4.535 4.535 0 1 1-6.414-6.414l3.996-3.997Z"/></g><defs><clipPath id="bya"><path fill="#fff" d="M0 0h24v24H0z"/></clipPath></defs></symbol><symbol fill="none" viewBox="0 0 24 24" id="list" xmlns="http://www.w3.org/2000/svg"><g clip-path="url(#caa)"><path fill-rule="evenodd" clip-rule="evenodd" d="M5 5a1 1 0 0 1 1 1v.01a1 1 0 0 1-2 0V6a1 1 0 0 1 1-1Zm3 1a1 1 0 0 1 1-1h11a1 1 0 1 1 0 2H9a1 1 0 0 1-1-1Zm-3 5a1 1 0 0 1 1 1v.01a1 1 0 1 1-2 0V12a1 1 0 0 1 1-1Zm3 1a1 1 0 0 1 1-1h11a1 1 0 1 1 0 2H9a1 1 0 0 1-1-1Zm-3 5a1 1 0 0 1 1 1v.01a1 1 0 1 1-2 0V18a1 1 0 0 1 1-1Zm3 1a1 1 0 0 1 1-1h11a1 1 0 1 1 0 2H9a1 1 0 0 1-1-1Z" fill="#3B3B3B"/></g><defs><clipPath id="caa"><path fill="#fff" d="M0 0h24v24H0z"/></clipPath></defs></symbol><symbol fill="none" viewBox="0 0 24 24" id="list-search" xmlns="http://www.w3.org/2000/svg"><g clip-path="url(#bza)"><path fill-rule="evenodd" clip-rule="evenodd" d="M3 6a1 1 0 0 1 1-1h16a1 1 0 1 1 0 2H4a1 1 0 0 1-1-1Zm8.464 5.464a5 5 0 0 1 7.707 6.294.994.994 0 0 1 .036.035l2.5 2.5a1 1 0 0 1-1.414 1.414l-2.5-2.5a.994.994 0 0 1-.035-.037 5 5 0 0 1-6.293-7.706ZM15 12a3 3 0 1 0 0 6 3 3 0 0 0 0-6ZM3 12a1 1 0 0 1 1-1h4a1 1 0 1 1 0 2H4a1 1 0 0 1-1-1Zm0 6a1 1 0 0 1 1-1h4a1 1 0 1 1 0 2H4a1 1 0 0 1-1-1Z" fill="#3B3B3B"/></g><defs><clipPath id="bza"><path fill="#fff" d="M0 0h24v24H0z"/></clipPath></defs></symbol><symbol fill="none" stroke="currentColor" stroke-width="2" stroke-linecap="round" stroke-linejoin="round" class="cbicon cbicon-tabler cbicons-tabler-outline cbicon-tabler-loader" viewBox="0 0 24 24" id="loader" xmlns="http://www.w3.org/2000/svg"><path d="M0 0h24v24H0z" stroke="none"/><path d="M12 6V3M16.25 7.75 18.4 5.6M18 12h3M16.25 16.25l2.15 2.15M12 18v3M7.75 16.25 5.6 18.4M6 12H3M7.75 7.75 5.6 5.6"/></symbol><symbol fill="none" stroke="currentColor" stroke-width="2" stroke-linecap="round" stroke-linejoin="round" class="cdicon cdicon-tabler cdicons-tabler-outline cdicon-tabler-lock" viewBox="0 0 24 24" id="lock" xmlns="http://www.w3.org/2000/svg"><path d="M0 0h24v24H0z" stroke="none"/><path d="M5 13a2 2 0 0 1 2-2h10a2 2 0 0 1 2 2v6a2 2 0 0 1-2 2H7a2 2 0 0 1-2-2v-6z"/><path d="M11 16a1 1 0 1 0 2 0 1 1 0 0 0-2 0M8 11V7a4 4 0 1 1 8 0v4"/></symbol><symbol fill="none" viewBox="0 0 24 24" id="lock_closed" xmlns="http://www.w3.org/2000/svg"><g clip-path="url(#cca)" fill-rule="evenodd" clip-rule="evenodd" fill="#3B3B3B"><path d="M4 13a3 3 0 0 1 3-3h10a3 3 0 0 1 3 3v6a3 3 0 0 1-3 3H7a3 3 0 0 1-3-3v-6Zm3-1a1 1 0 0 0-1 1v6a1 1 0 0 0 1 1h10a1 1 0 0 0 1-1v-6a1 1 0 0 0-1-1H7Z"/><path d="M10 16a2 2 0 1 1 4 0 2 2 0 0 1-4 0ZM12 4a3 3 0 0 0-3 3v4a1 1 0 1 1-2 0V7a5 5 0 0 1 10 0v4a1 1 0 1 1-2 0V7a3 3 0 0 0-3-3Z"/></g><defs><clipPath id="cca"><path fill="#fff" d="M0 0h24v24H0z"/></clipPath></defs></symbol><symbol fill="none" viewBox="0 0 24 24" id="mail" xmlns="http://www.w3.org/2000/svg"><g clip-path="url(#cea)" fill-rule="evenodd" clip-rule="evenodd" fill="#3B3B3B"><path d="M2 7a3 3 0 0 1 3-3h14a3 3 0 0 1 3 3v10a3 3 0 0 1-3 3H5a3 3 0 0 1-3-3V7Zm3-1a1 1 0 0 0-1 1v10a1 1 0 0 0 1 1h14a1 1 0 0 0 1-1V7a1 1 0 0 0-1-1H5Z"/><path d="M2.168 6.445a1 1 0 0 1 1.387-.277L12 11.798l8.445-5.63a1 1 0 0 1 1.11 1.664l-9 6a1 1 0 0 1-1.11 0l-9-6a1 1 0 0 1-.277-1.387Z"/></g><defs><clipPath id="cea"><path fill="#fff" d="M0 0h24v24H0z"/></clipPath></defs></symbol><symbol fill="none" viewBox="0 0 24 24" id="map-pin" xmlns="http://www.w3.org/2000/svg"><g clip-path="url(#cga)"><path fill-rule="evenodd" clip-rule="evenodd" d="M12 4a7 7 0 0 0-4.95 11.95l4.244 4.242a1 1 0 0 0 1.413 0l4.243-4.242A7 7 0 0 0 12 4Zm-5-.483a9 9 0 0 1 11.364 13.847l-4.243 4.243a3.001 3.001 0 0 1-4.24 0l-4.245-4.243A9 9 0 0 1 7 3.517Zm2.172 4.655a4 4 0 1 1 5.656 5.656 4 4 0 0 1-5.656-5.656ZM12 9a2 2 0 1 0 0 4 2 2 0 0 0 0-4Z" fill="#3B3B3B"/></g><defs><clipPath id="cga"><path fill="#fff" d="M0 0h24v24H0z"/></clipPath></defs></symbol><symbol fill="none" viewBox="0 0 24 24" id="map-pin-filled" xmlns="http://www.w3.org/2000/svg"><g clip-path="url(#cfa)"><path d="M18.364 4.636a9 9 0 0 1 .203 12.52l-.203.21-4.243 4.241a3 3 0 0 1-4.097.135l-.144-.135-4.244-4.243A9 9 0 0 1 18.364 4.636ZM12 8a3 3 0 1 0 0 6 3 3 0 0 0 0-6Z" fill="#3B3B3B"/></g><defs><clipPath id="cfa"><path fill="#fff" d="M0 0h24v24H0z"/></clipPath></defs></symbol><symbol fill="none" viewBox="0 0 24 24" id="message" xmlns="http://www.w3.org/2000/svg"><g clip-path="url(#cha)" fill-rule="evenodd" clip-rule="evenodd" fill="#3B3B3B"><path d="M17.596 6.967c-2.901-2.474-7.46-2.666-10.618-.425-3.113 2.209-3.848 6.042-1.85 8.998a1 1 0 0 1 .12.876l-.747 2.242 2.99-.636a1 1 0 0 1 .646.078c3.573 1.735 8.013.825 10.365-2.029 2.308-2.8 1.949-6.67-.906-9.104ZM2.944 21a.997.997 0 0 0 .28-.024l4.358-.928c4.29 1.91 9.555.824 12.463-2.704 3.026-3.67 2.505-8.78-1.15-11.897-3.61-3.078-9.18-3.298-13.074-.535-3.797 2.693-4.919 7.473-2.62 11.324l-1.144 3.433a.995.995 0 0 0 .197.998.995.995 0 0 0 .69.333Z"/><path d="M12 11a1 1 0 0 1 1 1v.01a1 1 0 1 1-2 0V12a1 1 0 0 1 1-1ZM8 11a1 1 0 0 1 1 1v.01a1 1 0 1 1-2 0V12a1 1 0 0 1 1-1ZM16 11a1 1 0 0 1 1 1v.01a1 1 0 1 1-2 0V12a1 1 0 0 1 1-1Z"/></g><defs><clipPath id="cha"><path fill="#fff" d="M0 0h24v24H0z"/></clipPath></defs></symbol><symbol fill="none" viewBox="0 0 24 24" id="minus" xmlns="http://www.w3.org/2000/svg"><g clip-path="url(#cia)"><path fill-rule="evenodd" clip-rule="evenodd" d="M4 12a1 1 0 0 1 1-1h14a1 1 0 1 1 0 2H5a1 1 0 0 1-1-1Z" fill="#3B3B3B"/></g><defs><clipPath id="cia"><path fill="#fff" d="M0 0h24v24H0z"/></clipPath></defs></symbol><symbol fill="none" viewBox="0 0 24 24" id="on_off" xmlns="http://www.w3.org/2000/svg"><g clip-path="url(#cja)"><path d="M16.986 5.519a1 1 0 0 1 1.41-.118 8.75 8.75 0 1 1-11.292 0 1 1 0 0 1 1.291 1.527 6.752 6.752 0 0 0 .488 10.69 6.75 6.75 0 0 0 8.221-10.69 1 1 0 0 1-.118-1.409Zm-5.236 6.646v-8a1 1 0 0 1 2 0v8a1 1 0 0 1-2 0Z" fill="#3B3B3B"/></g><defs><clipPath id="cja"><path fill="#fff" d="M0 0h24v24H0z"/></clipPath></defs></symbol><symbol fill="none" viewBox="0 0 24 24" id="outgoing" xmlns="http://www.w3.org/2000/svg"><g clip-path="url(#cka)" fill-rule="evenodd" clip-rule="evenodd" fill="#3B3B3B"><path d="M3 9a3 3 0 0 1 3-3h5a1 1 0 1 1 0 2H6a1 1 0 0 0-1 1v9a1 1 0 0 0 1 1h9a1 1 0 0 0 1-1v-5a1 1 0 1 1 2 0v5a3 3 0 0 1-3 3H6a3 3 0 0 1-3-3V9Z"/><path d="M20.707 3.293a1 1 0 0 1 0 1.414l-10 10a1 1 0 0 1-1.414-1.414l10-10a1 1 0 0 1 1.414 0Z"/><path d="M14 4a1 1 0 0 1 1-1h5a1 1 0 0 1 1 1v5a1 1 0 1 1-2 0V5h-4a1 1 0 0 1-1-1Z"/></g><defs><clipPath id="cka"><path fill="#fff" d="M0 0h24v24H0z"/></clipPath></defs></symbol><symbol fill="none" stroke="currentColor" stroke-width="2" stroke-linecap="round" stroke-linejoin="round" class="clicon clicon-tabler clicons-tabler-outline clicon-tabler-paw" viewBox="0 0 24 24" id="paw" xmlns="http://www.w3.org/2000/svg"><path d="M0 0h24v24H0z" stroke="none"/><path d="M14.7 13.5c-1.1-2-1.441-2.5-2.7-2.5-1.259 0-1.736.755-2.836 2.747-.942 1.703-2.846 1.845-3.321 3.291-.097.265-.145.677-.143.962 0 1.176.787 2 1.8 2 1.259 0 3-1 4.5-1s3.241 1 4.5 1c1.013 0 1.8-.823 1.8-2 0-.285-.049-.697-.146-.962-.475-1.451-2.512-1.835-3.454-3.538zM20.188 8.082A1.039 1.039 0 0 0 19.782 8h-.015c-.735.012-1.56.75-1.993 1.866-.519 1.335-.28 2.7.538 3.052.129.055.267.082.406.082.739 0 1.575-.742 2.011-1.866.516-1.335.273-2.7-.54-3.052zM9.474 9c.055 0 .109 0 .163-.011.944-.128 1.533-1.346 1.32-2.722C10.754 4.97 9.91 4 9.025 4c-.055 0-.109 0-.163.011-.944.128-1.533 1.346-1.32 2.722C7.746 8.026 8.59 9 9.475 9zM16.456 6.733c.214-1.376-.375-2.594-1.32-2.722A1.164 1.164 0 0 0 14.974 4c-.885 0-1.728.97-1.93 2.267-.214 1.376.375 2.594 1.32 2.722.054.007.108.011.162.011.885 0 1.73-.974 1.93-2.267zM5.69 12.918c.816-.352 1.054-1.719.536-3.052C5.79 8.742 4.955 8 4.217 8c-.14 0-.277.027-.407.082-.816.352-1.054 1.719-.536 3.052C3.71 12.258 4.545 13 5.283 13c.14 0 .277-.027.407-.082z"/></symbol><symbol fill="none" viewBox="0 0 24 24" id="pencil" xmlns="http://www.w3.org/2000/svg"><g clip-path="url(#cma)"><path fill-rule="evenodd" clip-rule="evenodd" d="M13.793 4.793a3.828 3.828 0 1 1 5.414 5.414l-10.5 10.5A1 1 0 0 1 8 21H4a1 1 0 0 1-1-1v-4a1 1 0 0 1 .293-.707l9.5-9.5 1-1ZM13.5 7.914l-8.5 8.5V19h2.586l8.5-8.5L13.5 7.914Zm4 1.172L14.914 6.5l.293-.293a1.828 1.828 0 0 1 2.586 2.586l-.293.293Z" fill="#3B3B3B"/></g><defs><clipPath id="cma"><path fill="#fff" d="M0 0h24v24H0z"/></clipPath></defs></symbol><symbol fill="none" stroke="currentColor" stroke-width="2" stroke-linecap="round" stroke-linejoin="round" class="cnicon cnicon-tabler cnicons-tabler-outline cnicon-tabler-plus" viewBox="0 0 24 24" id="plus" xmlns="http://www.w3.org/2000/svg"><path d="M0 0h24v24H0z" stroke="none"/><path d="M12 5v14M5 12h14"/></symbol><symbol fill="none" stroke="currentColor" stroke-width="2" stroke-linecap="round" stroke-linejoin="round" class="coicon coicon-tabler coicons-tabler-outline coicon-tabler-progress" viewBox="0 0 24 24" id="progress" xmlns="http://www.w3.org/2000/svg"><path d="M0 0h24v24H0z" stroke="none"/><path d="M10 20.777a8.942 8.942 0 0 1-2.48-.969M14 3.223a9.003 9.003 0 0 1 0 17.554M4.579 17.093a8.961 8.961 0 0 1-1.227-2.592M3.124 10.5c.16-.95.468-1.85.9-2.675l.169-.305M6.907 4.579A8.954 8.954 0 0 1 10 3.223"/></symbol><symbol fill="none" viewBox="0 0 24 24" id="progression" xmlns="http://www.w3.org/2000/svg"><g clip-path="url(#cpa)"><path fill-rule="evenodd" clip-rule="evenodd" d="M13.025 3a1 1 0 0 1 1.198-.752 10.003 10.003 0 0 1 0 19.504 1 1 0 1 1-.446-1.95 8.002 8.002 0 0 0 0-15.604A1 1 0 0 1 13.025 3Zm-2.05.001a1 1 0 0 1-.753 1.197 7.954 7.954 0 0 0-2.748 1.205A1 1 0 1 1 6.34 3.755a9.954 9.954 0 0 1 3.438-1.507A1 1 0 0 1 10.975 3ZM4.678 6.645a1 1 0 0 1 .39 1.36l-.163.294a7.975 7.975 0 0 0-.795 2.367 1 1 0 0 1-1.972-.332 9.975 9.975 0 0 1 1-2.973l.011-.02.17-.306a1 1 0 0 1 1.359-.39ZM3.074 13.54a1 1 0 0 1 1.239.683 7.961 7.961 0 0 0 1.09 2.303 1 1 0 0 1-1.648 1.134 9.962 9.962 0 0 1-1.364-2.881 1 1 0 0 1 .683-1.239Zm3.58 5.77a1 1 0 0 1 1.365-.369c.687.395 1.43.685 2.202.86a1 1 0 1 1-.442 1.951 9.942 9.942 0 0 1-2.758-1.077 1 1 0 0 1-.368-1.366Z" fill="#3B3B3B"/></g><defs><clipPath id="cpa"><path fill="#fff" d="M0 0h24v24H0z"/></clipPath></defs></symbol><symbol fill="none" viewBox="0 0 24 24" id="questionmark" xmlns="http://www.w3.org/2000/svg"><g clip-path="url(#cqa)" fill-rule="evenodd" clip-rule="evenodd" fill="#3B3B3B"><path d="M12 4a8 8 0 1 0 0 16 8 8 0 0 0 0-16ZM2 12C2 6.477 6.477 2 12 2s10 4.477 10 10-4.477 10-10 10S2 17.523 2 12Z"/><path d="M12 16a1 1 0 0 1 1 1v.01a1 1 0 1 1-2 0V17a1 1 0 0 1 1-1ZM9.203 7.396a3.6 3.6 0 1 1 4.129 5.547.5.5 0 0 0-.334.5 1 1 0 1 1-1.996.114 2.5 2.5 0 0 1 1.65-2.495 1.6 1.6 0 1 0-1.855-2.458 1 1 0 0 1-1.594-1.208Z"/></g><defs><clipPath id="cqa"><path fill="#fff" d="M0 0h24v24H0z"/></clipPath></defs></symbol><symbol fill="none" stroke="currentColor" stroke-width="2" stroke-linecap="round" stroke-linejoin="round" class="cricon cricon-tabler cricons-tabler-outline cricon-tabler-refresh" viewBox="0 0 24 24" id="refresh" xmlns="http://www.w3.org/2000/svg"><path d="M0 0h24v24H0z" stroke="none"/><path d="M20 11A8.1 8.1 0 0 0 4.5 9M4 5v4h4M4 13a8.1 8.1 0 0 0 15.5 2m.5 4v-4h-4"/></symbol><symbol fill="none" viewBox="0 0 24 24" id="report" xmlns="http://www.w3.org/2000/svg"><g clip-path="url(#csa)" fill-rule="evenodd" clip-rule="evenodd" fill="#3B3B3B"><path d="M14 2a1 1 0 0 1 1 1v4h4a1 1 0 1 1 0 2h-4a2 2 0 0 1-2-2V3a1 1 0 0 1 1-1Z"/><path d="M7 4a1 1 0 0 0-1 1v14a1 1 0 0 0 1 1h10a1 1 0 0 0 1-1V8.414L13.586 4H7ZM4 5a3 3 0 0 1 3-3h7a1 1 0 0 1 .707.293l5 5A1 1 0 0 1 20 8v11a3 3 0 0 1-3 3H7a3 3 0 0 1-3-3V5Z"/><path d="M9 11a1 1 0 0 1 1 1v5a1 1 0 1 1-2 0v-5a1 1 0 0 1 1-1ZM12 15a1 1 0 0 1 1 1v1a1 1 0 1 1-2 0v-1a1 1 0 0 1 1-1ZM15 13a1 1 0 0 1 1 1v3a1 1 0 1 1-2 0v-3a1 1 0 0 1 1-1Z"/></g><defs><clipPath id="csa"><path fill="#fff" d="M0 0h24v24H0z"/></clipPath></defs></symbol><symbol fill="none" viewBox="0 0 24 24" id="search" xmlns="http://www.w3.org/2000/svg"><g clip-path="url(#cta)" fill-rule="evenodd" clip-rule="evenodd" fill="#3B3B3B"><path d="M10 4a6 6 0 1 0 0 12 6 6 0 0 0 0-12Zm-8 6a8 8 0 1 1 16 0 8 8 0 0 1-16 0Z"/><path d="M14.293 14.293a1 1 0 0 1 1.414 0l6 6a1 1 0 0 1-1.414 1.414l-6-6a1 1 0 0 1 0-1.414Z"/></g><defs><clipPath id="cta"><path fill="#fff" d="M0 0h24v24H0z"/></clipPath></defs></symbol><symbol fill="none" viewBox="0 0 24 24" id="send" xmlns="http://www.w3.org/2000/svg"><g clip-path="url(#cva)"><path fill-rule="evenodd" clip-rule="evenodd" d="M5.337 5.46 7.217 11h9.459L5.336 5.46ZM16.676 13h-9.46l-1.88 5.54L16.677 13ZM5.444 12 3.087 5.053a1.555 1.555 0 0 1 .339-1.582 1.503 1.503 0 0 1 1.711-.336l16.302 7.966a1 1 0 0 1 0 1.797L5.137 20.864a1.502 1.502 0 0 1-1.712-.335l.727-.687-.726.688a1.555 1.555 0 0 1-.34-1.583L5.445 12Zm-.468-7.603-.002-.007.002.007Z" fill="#1C7ED6"/></g><defs><clipPath id="cva"><path fill="#fff" d="M0 0h24v24H0z"/></clipPath></defs></symbol><symbol fill="none" stroke="currentColor" stroke-width="2" stroke-linecap="round" stroke-linejoin="round" class="cuicon cuicon-tabler cuicons-tabler-outline cuicon-tabler-send-2" viewBox="0 0 24 24" id="send-2" xmlns="http://www.w3.org/2000/svg"><path d="M0 0h24v24H0z" stroke="none"/><path d="M4.698 4.034 21 12 4.698 19.966a.503.503 0 0 1-.546-.124.555.555 0 0 1-.12-.568L6.5 12 4.032 4.726a.555.555 0 0 1 .12-.568.503.503 0 0 1 .546-.124zM6.5 12H21"/></symbol><symbol fill="none" stroke="currentColor" stroke-width="2" stroke-linecap="round" stroke-linejoin="round" class="cwicon cwicon-tabler cwicons-tabler-outline cwicon-tabler-settings" viewBox="0 0 24 24" id="settings" xmlns="http://www.w3.org/2000/svg"><path d="M0 0h24v24H0z" stroke="none"/><path d="M10.325 4.317c.426-1.756 2.924-1.756 3.35 0a1.724 1.724 0 0 0 2.573 1.066c1.543-.94 3.31.826 2.37 2.37a1.724 1.724 0 0 0 1.065 2.572c1.756.426 1.756 2.924 0 3.35a1.724 1.724 0 0 0-1.066 2.573c.94 1.543-.826 3.31-2.37 2.37a1.724 1.724 0 0 0-2.572 1.065c-.426 1.756-2.924 1.756-3.35 0a1.724 1.724 0 0 0-2.573-1.066c-1.543.94-3.31-.826-2.37-2.37a1.724 1.724 0 0 0-1.065-2.572c-1.756-.426-1.756-2.924 0-3.35a1.724 1.724 0 0 0 1.066-2.573c-.94-1.543.826-3.31 2.37-2.37 1 .608 2.296.07 2.572-1.065z"/><path d="M9 12a3 3 0 1 0 6 0 3 3 0 0 0-6 0"/></symbol><symbol fill="none" viewBox="0 0 24 24" id="sort" xmlns="http://www.w3.org/2000/svg"><g clip-path="url(#cxa)" fill-rule="evenodd" clip-rule="evenodd" fill="#3B3B3B"><path d="M11.293 4.293a1 1 0 0 1 1.414 0l4 4a1 1 0 0 1-1.414 1.414L12 6.414 8.707 9.707a1 1 0 0 1-1.414-1.414l4-4ZM7.293 14.293a1 1 0 0 1 1.414 0L12 17.586l3.293-3.293a1 1 0 0 1 1.414 1.414l-4 4a1 1 0 0 1-1.414 0l-4-4a1 1 0 0 1 0-1.414Z"/></g><defs><clipPath id="cxa"><path fill="#fff" d="M0 0h24v24H0z"/></clipPath></defs></symbol><symbol fill="none" stroke="currentColor" stroke-width="2" stroke-linecap="round" stroke-linejoin="round" class="cyicon cyicon-tabler cyicons-tabler-outline cyicon-tabler-subtask" viewBox="0 0 24 24" id="subtask" xmlns="http://www.w3.org/2000/svg"><path d="M0 0h24v24H0z" stroke="none"/><path d="M6 9h6M4 5h4M6 5v11a1 1 0 0 0 1 1h5M12 8a1 1 0 0 1 1-1h6a1 1 0 0 1 1 1v2a1 1 0 0 1-1 1h-6a1 1 0 0 1-1-1zM12 16a1 1 0 0 1 1-1h6a1 1 0 0 1 1 1v2a1 1 0 0 1-1 1h-6a1 1 0 0 1-1-1z"/></symbol><symbol fill="none" stroke="currentColor" stroke-width="2" stroke-linecap="round" stroke-linejoin="round" class="czicon czicon-tabler czicons-tabler-outline czicon-tabler-trash" viewBox="0 0 24 24" id="trash" xmlns="http://www.w3.org/2000/svg"><path d="M0 0h24v24H0z" stroke="none"/><path d="M4 7h16M10 11v6M14 11v6M5 7l1 12a2 2 0 0 0 2 2h8a2 2 0 0 0 2-2l1-12M9 7V4a1 1 0 0 1 1-1h4a1 1 0 0 1 1 1v3"/></symbol><symbol fill="none" viewBox="0 0 24 24" id="warning" xmlns="http://www.w3.org/2000/svg"><g clip-path="url(#daa)" fill-rule="evenodd" clip-rule="evenodd" fill="#A87F05"><path d="M12 8a1 1 0 0 1 1 1v2a1 1 0 1 1-2 0V9a1 1 0 0 1 1-1ZM11 15a1 1 0 0 1 1-1h.01a1 1 0 1 1 0 2H12a1 1 0 0 1-1-1Z"/><path d="M9.37 3.506a3 3 0 0 1 5.24 0l7.095 12.242c.024.041.044.083.062.127A3 3 0 0 1 19.007 20H5c-.018 0-.036 0-.054-.002a1.032 1.032 0 0 1-.107 0 3 3 0 0 1-2.625-4.124c.017-.043.038-.085.06-.126L9.37 3.506ZM4.945 18.001 5 18h13.996a1 1 0 0 0 .937-1.32L12.875 4.5l-.01-.017a1 1 0 0 0-1.75 0l-.01.017-7.059 12.18A1 1 0 0 0 4.941 18h.004Z"/></g><defs><clipPath id="daa"><path fill="#fff" d="M0 0h24v24H0z"/></clipPath></defs></symbol></svg>
