<!-- Generated by IcoMoon.io -->
<svg version="1.1" xmlns="http://www.w3.org/2000/svg" width="32" height="32" viewBox="0 0 32 32">
<path d="M6.18 16.257c0.129-0.279 0.322-0.558 0.579-0.837l13.551-13.551q0.386-0.386 0.805-0.579t0.998-0.161 0.966 0.161c0.258 0.086 0.537 0.279 0.837 0.579l1.513 1.513q0.386 0.386 0.579 0.869t0.193 0.966q0 0.547-0.161 0.966c-0.107 0.279-0.311 0.558-0.612 0.837l-9.978 10.204 9.946 9.946q0.354 0.354 0.547 0.869t0.193 0.933q0 0.547-0.161 0.966c-0.107 0.279-0.3 0.569-0.579 0.869l-1.513 1.803q-0.386 0.386-0.805 0.579t-0.998 0.193-0.966-0.193c-0.258-0.129-0.547-0.322-0.869-0.579l-13.455-13.583q-0.418-0.418-0.612-0.837c-0.129-0.279-0.193-0.601-0.193-0.966q0-0.547 0.193-0.966z"></path>
</svg>
