<!-- Generated by IcoMoon.io -->
<svg version="1.1" xmlns="http://www.w3.org/2000/svg" width="28" height="32" viewBox="0 0 28 32">
<path d="M24.592 9.273q-0.451-0.193-1.062-0.225c-0.279 0-0.579 0.022-0.901 0.064l-0.354 0.064-4.893 3.283v-10.526q0.032-0.354-0.193-0.612c-0.15-0.172-0.354-0.236-0.612-0.193h-4.86q-0.322-0.032-0.579 0.193c-0.172 0.15-0.247 0.354-0.225 0.612v10.526l-4.86-3.283-0.386-0.064q-0.451-0.064-0.869-0.064-0.612 0.032-1.094 0.225-0.579 0.225-0.933 0.708-0.547 0.74-0.547 1.642t0.547 1.642q0.032 0.032 1.288 1.545 5.343 6.502 7.661 8.948 0.966 1.159 2.446 1.609 1.448-0.451 2.382-1.609 2.060-2.253 6.985-8.176 1.899-2.285 1.963-2.317 0.579-0.708 0.612-1.642c0.022-0.622-0.161-1.169-0.547-1.642q-0.354-0.483-0.966-0.708zM28.454 25.399h-3.959v2.382q0 0.322-0.225 0.547c-0.15 0.15-0.343 0.236-0.579 0.258h-18.959q-0.322 0-0.547-0.258c-0.15-0.172-0.236-0.354-0.257-0.547v-2.382h-3.927v6.309q-0.064 0.676 0.451 1.159c0.343 0.322 0.73 0.472 1.159 0.451h25.332q0.676 0.032 1.159-0.451c0.322-0.322 0.44-0.708 0.354-1.159 0-2.103 0-4.206 0-6.309z"></path>
</svg>
