<!-- Generated by IcoMoon.io -->
<svg version="1.1" xmlns="http://www.w3.org/2000/svg" width="32" height="32" viewBox="0 0 32 32">
<path d="M16.078 15.684c1.109 0 2.010-0.229 2.010-1.341v-12.002c0-1.109-0.901-1.394-2.010-1.394s-2.010 0.286-2.010 1.394v12.002c0 1.112 0.901 1.341 2.010 1.341zM21.734 4.969c-0.44-0.182-0.93 0.138-0.93 0.615v2.343c0 0.581 0.305 1.118 0.801 1.416 3.103 1.859 5.222 5.247 5.222 9.119 0 5.891-4.852 10.68-10.752 10.639-5.898 0.038-10.749-4.748-10.749-10.642 0-3.872 2.123-7.26 5.222-9.119 0.496-0.298 0.801-0.835 0.801-1.416v-2.343c0-0.477-0.487-0.798-0.93-0.615-5.681 2.355-9.572 8.159-8.991 14.8 0.641 7.304 6.83 13.362 14.649 13.324 7.819 0.038 14.009-6.020 14.646-13.321 0.581-6.642-3.307-12.445-8.991-14.8z"></path>
</svg>
