<!-- Generated by IcoMoon.io -->
<svg version="1.1" xmlns="http://www.w3.org/2000/svg" width="33" height="32" viewBox="0 0 33 32">
<path d="M23.787 19.186q1.513-2.704 1.513-5.794-0.064-3.38-1.802-6.245-1.706-2.8-4.539-4.41-2.929-1.674-6.277-1.609-2.478-0.032-4.796 0.869t-4.088 2.639-2.768 3.991-1.030 4.764q0.032 2.478 1.030 4.732t2.768 3.991 4.088 2.639 4.796 0.901c2.082 0 4.045-0.483 5.89-1.448l8.433 8.144q0.998 0.966 2.382 0.966c0.923 0 1.717-0.322 2.382-0.966l0.451-0.451q0.483-0.418 0.773-0.998t0.29-1.223-0.225-1.223-0.676-1.030c-0.043-0.064-0.107-0.107-0.193-0.129-2.8-2.704-5.601-5.408-8.401-8.111zM5.633 10.528q0.612-1.384 1.674-2.446t2.478-1.609 2.897-0.515q2.028-0.032 3.766 0.966t2.8 2.704 1.062 3.766q-0.032 1.513-0.612 2.865t-1.674 2.414-2.478 1.609-2.865 0.515q-1.513 0.032-2.897-0.515t-2.478-1.609-1.706-2.414c-0.408-0.901-0.612-1.845-0.612-2.833v-0.032q0.032-1.481 0.644-2.865z"></path>
</svg>
