<svg width="24" height="24" viewBox="0 0 24 24" fill="none" xmlns="http://www.w3.org/2000/svg">
<g clip-path="url(#clip0_745_3388)">
<path fill-rule="evenodd" clip-rule="evenodd" d="M6 9C5.44772 9 5 9.44772 5 10C5 10.5523 5.44772 11 6 11C6.55228 11 7 10.5523 7 10C7 9.44772 6.55228 9 6 9ZM3 10C3 8.34315 4.34315 7 6 7C7.65685 7 9 8.34315 9 10C9 11.6569 7.65685 13 6 13C4.34315 13 3 11.6569 3 10Z" fill="#3B3B3B"/>
<path fill-rule="evenodd" clip-rule="evenodd" d="M6 3C6.55228 3 7 3.44772 7 4V8C7 8.55228 6.55228 9 6 9C5.44772 9 5 8.55228 5 8V4C5 3.44772 5.44772 3 6 3Z" fill="#3B3B3B"/>
<path fill-rule="evenodd" clip-rule="evenodd" d="M6 11C6.55228 11 7 11.4477 7 12V20C7 20.5523 6.55228 21 6 21C5.44772 21 5 20.5523 5 20V12C5 11.4477 5.44772 11 6 11Z" fill="#3B3B3B"/>
<path fill-rule="evenodd" clip-rule="evenodd" d="M12 15C11.4477 15 11 15.4477 11 16C11 16.5523 11.4477 17 12 17C12.5523 17 13 16.5523 13 16C13 15.4477 12.5523 15 12 15ZM9 16C9 14.3431 10.3431 13 12 13C13.6569 13 15 14.3431 15 16C15 17.6569 13.6569 19 12 19C10.3431 19 9 17.6569 9 16Z" fill="#3B3B3B"/>
<path fill-rule="evenodd" clip-rule="evenodd" d="M12 3C12.5523 3 13 3.44772 13 4V14C13 14.5523 12.5523 15 12 15C11.4477 15 11 14.5523 11 14V4C11 3.44772 11.4477 3 12 3Z" fill="#3B3B3B"/>
<path fill-rule="evenodd" clip-rule="evenodd" d="M12 17C12.5523 17 13 17.4477 13 18V20C13 20.5523 12.5523 21 12 21C11.4477 21 11 20.5523 11 20V18C11 17.4477 11.4477 17 12 17Z" fill="#3B3B3B"/>
<path fill-rule="evenodd" clip-rule="evenodd" d="M18 6C17.4477 6 17 6.44772 17 7C17 7.55228 17.4477 8 18 8C18.5523 8 19 7.55228 19 7C19 6.44772 18.5523 6 18 6ZM15 7C15 5.34315 16.3431 4 18 4C19.6569 4 21 5.34315 21 7C21 8.65685 19.6569 10 18 10C16.3431 10 15 8.65685 15 7Z" fill="#3B3B3B"/>
<path fill-rule="evenodd" clip-rule="evenodd" d="M18 3C18.5523 3 19 3.44772 19 4V5C19 5.55228 18.5523 6 18 6C17.4477 6 17 5.55228 17 5V4C17 3.44772 17.4477 3 18 3Z" fill="#3B3B3B"/>
<path fill-rule="evenodd" clip-rule="evenodd" d="M18 8C18.5523 8 19 8.44772 19 9V20C19 20.5523 18.5523 21 18 21C17.4477 21 17 20.5523 17 20V9C17 8.44772 17.4477 8 18 8Z" fill="#3B3B3B"/>
</g>
<defs>
<clipPath id="clip0_745_3388">
<rect width="24" height="24" fill="white"/>
</clipPath>
</defs>
</svg>
