<svg width="24" height="24" viewBox="0 0 24 24" fill="none" xmlns="http://www.w3.org/2000/svg">
<g clip-path="url(#clip0_745_3396)">
<path fill-rule="evenodd" clip-rule="evenodd" d="M12 4C12.5523 4 13 4.44772 13 5V19C13 19.5523 12.5523 20 12 20C11.4477 20 11 19.5523 11 19V5C11 4.44772 11.4477 4 12 4Z" fill="#3B3B3B"/>
<path fill-rule="evenodd" clip-rule="evenodd" d="M11.2929 4.29289C11.6834 3.90237 12.3166 3.90237 12.7071 4.29289L18.7071 10.2929C19.0976 10.6834 19.0976 11.3166 18.7071 11.7071C18.3166 12.0976 17.6834 12.0976 17.2929 11.7071L11.2929 5.70711C10.9024 5.31658 10.9024 4.68342 11.2929 4.29289Z" fill="#3B3B3B"/>
<path fill-rule="evenodd" clip-rule="evenodd" d="M12.7071 4.29289C13.0976 4.68342 13.0976 5.31658 12.7071 5.70711L6.70711 11.7071C6.31658 12.0976 5.68342 12.0976 5.29289 11.7071C4.90237 11.3166 4.90237 10.6834 5.29289 10.2929L11.2929 4.29289C11.6834 3.90237 12.3166 3.90237 12.7071 4.29289Z" fill="#3B3B3B"/>
</g>
<defs>
<clipPath id="clip0_745_3396">
<rect width="24" height="24" fill="white"/>
</clipPath>
</defs>
</svg>
