<svg width="24" height="24" viewBox="0 0 24 24" fill="none" xmlns="http://www.w3.org/2000/svg">
<g clip-path="url(#clip0_745_3394)">
<path fill-rule="evenodd" clip-rule="evenodd" d="M4 12C4 11.4477 4.44772 11 5 11H19C19.5523 11 20 11.4477 20 12C20 12.5523 19.5523 13 19 13H5C4.44772 13 4 12.5523 4 12Z" fill="#3B3B3B"/>
<path fill-rule="evenodd" clip-rule="evenodd" d="M19.7071 11.2929C20.0976 11.6834 20.0976 12.3166 19.7071 12.7071L13.7071 18.7071C13.3166 19.0976 12.6834 19.0976 12.2929 18.7071C11.9024 18.3166 11.9024 17.6834 12.2929 17.2929L18.2929 11.2929C18.6834 10.9024 19.3166 10.9024 19.7071 11.2929Z" fill="#3B3B3B"/>
<path fill-rule="evenodd" clip-rule="evenodd" d="M12.2929 5.29289C12.6834 4.90237 13.3166 4.90237 13.7071 5.29289L19.7071 11.2929C20.0976 11.6834 20.0976 12.3166 19.7071 12.7071C19.3166 13.0976 18.6834 13.0976 18.2929 12.7071L12.2929 6.70711C11.9024 6.31658 11.9024 5.68342 12.2929 5.29289Z" fill="#3B3B3B"/>
</g>
<defs>
<clipPath id="clip0_745_3394">
<rect width="24" height="24" fill="white"/>
</clipPath>
</defs>
</svg>
