<svg width="24" height="24" viewBox="0 0 24 24" fill="none" xmlns="http://www.w3.org/2000/svg">
<g clip-path="url(#clip0_745_3390)">
<path fill-rule="evenodd" clip-rule="evenodd" d="M12 4C12.5523 4 13 4.44772 13 5V19C13 19.5523 12.5523 20 12 20C11.4477 20 11 19.5523 11 19V5C11 4.44772 11.4477 4 12 4Z" fill="#3B3B3B"/>
<path fill-rule="evenodd" clip-rule="evenodd" d="M18.7071 12.2929C19.0976 12.6834 19.0976 13.3166 18.7071 13.7071L12.7071 19.7071C12.3166 20.0976 11.6834 20.0976 11.2929 19.7071C10.9024 19.3166 10.9024 18.6834 11.2929 18.2929L17.2929 12.2929C17.6834 11.9024 18.3166 11.9024 18.7071 12.2929Z" fill="#3B3B3B"/>
<path fill-rule="evenodd" clip-rule="evenodd" d="M5.29289 12.2929C5.68342 11.9024 6.31658 11.9024 6.70711 12.2929L12.7071 18.2929C13.0976 18.6834 13.0976 19.3166 12.7071 19.7071C12.3166 20.0976 11.6834 20.0976 11.2929 19.7071L5.29289 13.7071C4.90237 13.3166 4.90237 12.6834 5.29289 12.2929Z" fill="#3B3B3B"/>
</g>
<defs>
<clipPath id="clip0_745_3390">
<rect width="24" height="24" fill="white"/>
</clipPath>
</defs>
</svg>
