<svg width="24" height="24" viewBox="0 0 24 24" fill="none" xmlns="http://www.w3.org/2000/svg">
<g clip-path="url(#clip0_745_3310)">
<path fill-rule="evenodd" clip-rule="evenodd" d="M12 4C7.58172 4 4 7.58172 4 12C4 16.4183 7.58172 20 12 20C16.4183 20 20 16.4183 20 12C20 7.58172 16.4183 4 12 4ZM2 12C2 6.47715 6.47715 2 12 2C17.5228 2 22 6.47715 22 12C22 17.5228 17.5228 22 12 22C6.47715 22 2 17.5228 2 12Z" fill="#C3372C"/>
<path d="M8.17289 9.58711C7.78237 9.19659 7.78237 8.56342 8.17289 8.1729C8.56342 7.78237 9.19658 7.78237 9.58711 8.1729L15.8297 14.4155C16.2203 14.8061 16.2203 15.4392 15.8297 15.8298C15.4392 16.2203 14.8061 16.2203 14.4155 15.8298L8.17289 9.58711Z" fill="#C3372C"/>
<path d="M14.4155 8.17293C14.8061 7.7824 15.4392 7.7824 15.8297 8.17293C16.2203 8.56345 16.2203 9.19662 15.8297 9.58714L9.58711 15.8298C9.19658 16.2203 8.56342 16.2203 8.17289 15.8298C7.78237 15.4393 7.78237 14.8061 8.17289 14.4156L14.4155 8.17293Z" fill="#C3372C"/>
</g>
<defs>
<clipPath id="clip0_745_3310">
<rect width="24" height="24" fill="white"/>
</clipPath>
</defs>
</svg>
