<svg width="24" height="24" viewBox="0 0 24 24" fill="none" xmlns="http://www.w3.org/2000/svg">
<g clip-path="url(#clip0_745_3332)">
<path fill-rule="evenodd" clip-rule="evenodd" d="M3 20C3 19.4477 3.44772 19 4 19H20C20.5523 19 21 19.4477 21 20C21 20.5523 20.5523 21 20 21H4C3.44772 21 3 20.5523 3 20Z" fill="#3B3B3B"/>
<path fill-rule="evenodd" clip-rule="evenodd" d="M12 3C12.5523 3 13 3.44772 13 4V14C13 14.5523 12.5523 15 12 15C11.4477 15 11 14.5523 11 14V4C11 3.44772 11.4477 3 12 3Z" fill="#3B3B3B"/>
<path fill-rule="evenodd" clip-rule="evenodd" d="M16.7071 9.29289C17.0976 9.68342 17.0976 10.3166 16.7071 10.7071L12.7071 14.7071C12.3166 15.0976 11.6834 15.0976 11.2929 14.7071C10.9024 14.3166 10.9024 13.6834 11.2929 13.2929L15.2929 9.29289C15.6834 8.90237 16.3166 8.90237 16.7071 9.29289Z" fill="#3B3B3B"/>
<path fill-rule="evenodd" clip-rule="evenodd" d="M7.29289 9.29289C7.68342 8.90237 8.31658 8.90237 8.70711 9.29289L12.7071 13.2929C13.0976 13.6834 13.0976 14.3166 12.7071 14.7071C12.3166 15.0976 11.6834 15.0976 11.2929 14.7071L7.29289 10.7071C6.90237 10.3166 6.90237 9.68342 7.29289 9.29289Z" fill="#3B3B3B"/>
</g>
<defs>
<clipPath id="clip0_745_3332">
<rect width="24" height="24" fill="white"/>
</clipPath>
</defs>
</svg>
