<svg width="24" height="24" viewBox="0 0 24 24" fill="none" xmlns="http://www.w3.org/2000/svg">
<g clip-path="url(#clip0_745_3334)">
<path fill-rule="evenodd" clip-rule="evenodd" d="M11.1974 7.60252C10.2993 6.39421 8.79889 5.79248 7.31481 6.04548C5.83072 6.29847 4.61438 7.36334 4.16738 8.80094C3.72038 10.2386 4.11844 11.8054 5.1974 12.8553L5.20371 12.8615L12 19.5926L18.7963 12.8615C18.817 12.841 18.8384 12.8215 18.8604 12.8032C19.8846 11.7529 20.2532 10.2232 19.8145 8.81846C19.3671 7.38609 18.1557 6.32459 16.677 6.06923C15.1983 5.81387 13.7011 6.40761 12.7993 7.60698C12.6098 7.85899 12.3125 8.00687 11.9972 8.006C11.6819 8.00512 11.3855 7.85558 11.1974 7.60252ZM20.1347 14.3509L12.7037 21.7105C12.314 22.0965 11.686 22.0965 11.2963 21.7105L3.79929 14.2855C2.18334 12.7106 1.58753 10.3621 2.25757 8.20712C2.92807 6.05071 4.75258 4.45342 6.97871 4.07392C8.80927 3.76186 10.6564 4.31673 12.0041 5.53157C13.3533 4.32891 15.1947 3.78364 17.0174 4.0984C19.2354 4.48145 21.0525 6.0737 21.7235 8.22224C22.3945 10.3708 21.8066 12.7142 20.2007 14.2914C20.1794 14.3124 20.1573 14.3322 20.1347 14.3509Z" fill="#3B3B3B"/>
</g>
<defs>
<clipPath id="clip0_745_3334">
<rect width="24" height="24" fill="white"/>
</clipPath>
</defs>
</svg>
