<svg width="24" height="24" viewBox="0 0 24 24" fill="none" xmlns="http://www.w3.org/2000/svg">
<g clip-path="url(#clip0_745_3302)">
<path d="M14 15C14 14.7348 13.8946 14.4805 13.707 14.293C13.5195 14.1054 13.2652 14 13 14H11C10.7348 14 10.4805 14.1054 10.293 14.293C10.1054 14.4805 10 14.7348 10 15V20H14V15ZM20 19C20 19.7957 19.6837 20.5585 19.1211 21.1211C18.5585 21.6837 17.7957 22 17 22H7C6.20435 22 5.44152 21.6837 4.87891 21.1211C4.3163 20.5585 4 19.7957 4 19V13H3C2.59559 13 2.23099 12.7564 2.07617 12.3828C1.92139 12.0091 2.00697 11.579 2.29297 11.293L11.293 2.29297L11.3691 2.22461C11.7619 1.90426 12.3409 1.92685 12.707 2.29297L21.707 11.293C21.993 11.579 22.0786 12.0091 21.9238 12.3828C21.769 12.7564 21.4044 13 21 13H20V19ZM16 20H17C17.2652 20 17.5195 19.8946 17.707 19.707C17.8946 19.5195 18 19.2652 18 19V12C18 11.5711 18.2701 11.2055 18.6494 11.0635L12 4.41406L5.34961 11.0635C5.72937 11.2053 6 11.5708 6 12V19C6 19.2652 6.10543 19.5195 6.29297 19.707C6.48051 19.8946 6.73479 20 7 20H8V15C8 14.2043 8.3163 13.4415 8.87891 12.8789C9.44152 12.3163 10.2044 12 11 12H13C13.7957 12 14.5585 12.3163 15.1211 12.8789C15.6837 13.4415 16 14.2043 16 15V20Z" fill="#3B3B3B"/>
</g>
<defs>
<clipPath id="clip0_745_3302">
<rect width="24" height="24" fill="white"/>
</clipPath>
</defs>
</svg>
