<svg width="24" height="24" viewBox="0 0 24 24" fill="none" xmlns="http://www.w3.org/2000/svg">
<g clip-path="url(#clip0_745_3356)">
<path fill-rule="evenodd" clip-rule="evenodd" d="M13.2929 4.293C15.0641 2.52177 17.9359 2.52177 19.7071 4.293C21.4783 6.06424 21.4783 8.93598 19.7071 10.7072L15.7105 14.7038C14.8644 15.5653 13.7076 16.0506 12.5 16.0506C11.2906 16.0506 10.1321 15.5638 9.28571 14.7C8.89919 14.3055 8.90565 13.6723 9.30014 13.2858C9.69463 12.8993 10.3278 12.9058 10.7143 13.3003C11.1845 13.7802 11.8281 14.0506 12.5 14.0506C13.1719 14.0506 13.8155 13.7802 14.2857 13.3003L14.2929 13.293L18.2929 9.293C19.2831 8.30282 19.2831 6.69741 18.2929 5.70722C17.3027 4.71703 15.6973 4.71703 14.7071 5.70722L14.2071 6.20722C13.8166 6.59774 13.1834 6.59774 12.7929 6.20722C12.4024 5.81669 12.4024 5.18353 12.7929 4.793L13.2929 4.293Z" fill="#3B3B3B"/>
<path fill-rule="evenodd" clip-rule="evenodd" d="M8.28949 9.29641C9.13556 8.43496 10.2924 7.9496 11.5 7.9496C12.7094 7.9496 13.8679 8.4364 14.7143 9.30026C15.1008 9.69475 15.0943 10.3279 14.6999 10.7144C14.3054 11.1009 13.6722 11.0945 13.2857 10.7C12.8155 10.22 12.1719 9.9496 11.5 9.9496C10.8281 9.9496 10.1845 10.22 9.71428 10.7L9.70714 10.7073L5.7071 14.7072C4.71692 15.6974 4.71692 17.3028 5.7071 18.293C6.69729 19.2832 8.3027 19.2832 9.29289 18.293L9.79289 17.793C10.1834 17.4025 10.8166 17.4025 11.2071 17.793C11.5976 18.1835 11.5976 18.8167 11.2071 19.2072L10.7071 19.7072C8.93587 21.4785 6.06413 21.4785 4.29289 19.7072C2.52165 17.936 2.52165 15.0642 4.29289 13.293L8.28949 9.29641Z" fill="#3B3B3B"/>
</g>
<defs>
<clipPath id="clip0_745_3356">
<rect width="24" height="24" fill="white"/>
</clipPath>
</defs>
</svg>
