<svg width="24" height="24" viewBox="0 0 24 24" fill="none" xmlns="http://www.w3.org/2000/svg">
<g clip-path="url(#clip0_745_3336)">
<path fill-rule="evenodd" clip-rule="evenodd" d="M4 13C4 11.3431 5.34315 10 7 10H17C18.6569 10 20 11.3431 20 13V19C20 20.6569 18.6569 22 17 22H7C5.34315 22 4 20.6569 4 19V13ZM7 12C6.44772 12 6 12.4477 6 13V19C6 19.5523 6.44772 20 7 20H17C17.5523 20 18 19.5523 18 19V13C18 12.4477 17.5523 12 17 12H7Z" fill="#3B3B3B"/>
<path fill-rule="evenodd" clip-rule="evenodd" d="M10 16C10 14.8954 10.8954 14 12 14C13.1046 14 14 14.8954 14 16C14 17.1046 13.1046 18 12 18C10.8954 18 10 17.1046 10 16Z" fill="#3B3B3B"/>
<path fill-rule="evenodd" clip-rule="evenodd" d="M12 4C10.3431 4 9 5.34315 9 7V11C9 11.5523 8.55228 12 8 12C7.44772 12 7 11.5523 7 11V7C7 4.23858 9.23858 2 12 2C14.7614 2 17 4.23858 17 7V11C17 11.5523 16.5523 12 16 12C15.4477 12 15 11.5523 15 11V7C15 5.34315 13.6569 4 12 4Z" fill="#3B3B3B"/>
</g>
<defs>
<clipPath id="clip0_745_3336">
<rect width="24" height="24" fill="white"/>
</clipPath>
</defs>
</svg>
