<svg width="24" height="24" viewBox="0 0 24 24" fill="none" xmlns="http://www.w3.org/2000/svg">
<g clip-path="url(#clip0_745_3360)">
<path fill-rule="evenodd" clip-rule="evenodd" d="M2.00001 7C2.00001 5.34315 3.34316 4 5.00001 4H19C20.6569 4 22 5.34315 22 7V17C22 18.6569 20.6569 20 19 20H5.00001C3.34316 20 2.00001 18.6569 2.00001 17V7ZM5.00001 6C4.44773 6 4.00001 6.44772 4.00001 7V17C4.00001 17.5523 4.44773 18 5.00001 18H19C19.5523 18 20 17.5523 20 17V7C20 6.44772 19.5523 6 19 6H5.00001Z" fill="#3B3B3B"/>
<path fill-rule="evenodd" clip-rule="evenodd" d="M2.16796 6.4453C2.47432 5.98577 3.09519 5.8616 3.55471 6.16795L12 11.7981L20.4453 6.16795C20.9048 5.8616 21.5257 5.98577 21.8321 6.4453C22.1384 6.90483 22.0142 7.5257 21.5547 7.83205L12.5547 13.8321C12.2188 14.056 11.7812 14.056 11.4453 13.8321L2.44531 7.83205C1.98579 7.5257 1.86161 6.90483 2.16796 6.4453Z" fill="#3B3B3B"/>
</g>
<defs>
<clipPath id="clip0_745_3360">
<rect width="24" height="24" fill="white"/>
</clipPath>
</defs>
</svg>
