<svg width="24" height="24" viewBox="0 0 24 24" fill="none" xmlns="http://www.w3.org/2000/svg">
<g clip-path="url(#clip0_745_3362)">
<path fill-rule="evenodd" clip-rule="evenodd" d="M17.5963 6.96732C14.6949 4.49254 10.1364 4.30134 6.97839 6.54179C3.8649 8.75065 3.12974 12.5838 5.12841 15.5398C5.30254 15.7973 5.34699 16.1212 5.24868 16.4162L4.50136 18.6581L7.49189 18.0218C7.70958 17.9755 7.93651 18.0031 8.13673 18.1003C11.7102 19.8352 16.1501 18.9246 18.5022 16.071C20.8095 13.2718 20.4505 9.40178 17.5963 6.96732ZM2.94396 20.9986C3.03935 21.004 3.13378 20.9955 3.22468 20.9745L7.58151 20.0475C11.8716 21.9564 17.1375 20.8711 20.0455 17.3431C23.0707 13.6729 22.5501 8.56394 18.8942 5.44565C15.2856 2.36769 9.71489 2.14819 5.82114 4.9106C2.024 7.60448 0.902196 12.3839 3.20101 16.2346L2.05667 19.6676C2.02559 19.7556 2.00661 19.8485 2.00132 19.9439C1.99436 20.0666 2.01036 20.1878 2.04658 20.3018C2.09023 20.4402 2.16207 20.5635 2.25426 20.6664C2.34625 20.7695 2.46068 20.8547 2.59334 20.9136C2.70263 20.9623 2.82122 20.9918 2.94396 20.9986Z" fill="#3B3B3B"/>
<path fill-rule="evenodd" clip-rule="evenodd" d="M12 10.9999C12.5523 10.9999 13 11.4476 13 11.9999V12.0099C13 12.5622 12.5523 13.0099 12 13.0099C11.4477 13.0099 11 12.5622 11 12.0099V11.9999C11 11.4476 11.4477 10.9999 12 10.9999Z" fill="#3B3B3B"/>
<path fill-rule="evenodd" clip-rule="evenodd" d="M8 10.9999C8.55228 10.9999 9 11.4476 9 11.9999V12.0099C9 12.5622 8.55228 13.0099 8 13.0099C7.44771 13.0099 7 12.5622 7 12.0099V11.9999C7 11.4476 7.44771 10.9999 8 10.9999Z" fill="#3B3B3B"/>
<path fill-rule="evenodd" clip-rule="evenodd" d="M16 10.9999C16.5523 10.9999 17 11.4476 17 11.9999V12.0099C17 12.5622 16.5523 13.0099 16 13.0099C15.4477 13.0099 15 12.5622 15 12.0099V11.9999C15 11.4476 15.4477 10.9999 16 10.9999Z" fill="#3B3B3B"/>
</g>
<defs>
<clipPath id="clip0_745_3362">
<rect width="24" height="24" fill="white"/>
</clipPath>
</defs>
</svg>
