<svg width="24" height="24" viewBox="0 0 24 24" fill="none" xmlns="http://www.w3.org/2000/svg">
<g clip-path="url(#clip0_745_3338)">
<path d="M16.9863 5.51904C17.3426 5.09743 17.9736 5.04467 18.3954 5.40088C19.7655 6.55785 20.7469 8.10815 21.207 9.84131C21.667 11.5745 21.5836 13.4072 20.9677 15.0913C20.3518 16.7754 19.2333 18.2298 17.7636 19.2573C16.2938 20.2848 14.5433 20.8354 12.7499 20.8354C10.9566 20.8354 9.2061 20.2848 7.73627 19.2573C6.2666 18.2298 5.1481 16.7754 4.53217 15.0913C3.91625 13.4072 3.8329 11.5745 4.29291 9.84131C4.75299 8.10815 5.73443 6.55785 7.10443 5.40088C7.52627 5.04468 8.15724 5.09743 8.51361 5.51904C8.86982 5.94089 8.81706 6.57185 8.39545 6.92822C7.33843 7.82077 6.58048 9.01687 6.22553 10.354C5.87059 11.6911 5.93589 13.1055 6.41107 14.4048C6.88629 15.7038 7.74903 16.8261 8.88275 17.6187C10.0166 18.4111 11.3666 18.8354 12.7499 18.8354C14.1333 18.8354 15.4833 18.4111 16.6171 17.6187C17.7508 16.8261 18.6136 15.7038 19.0888 14.4048C19.564 13.1055 19.6293 11.6911 19.2744 10.354C18.9194 9.01687 18.1614 7.82077 17.1044 6.92822C16.6828 6.57185 16.6301 5.94089 16.9863 5.51904ZM11.7499 12.1646V4.16455C11.7499 3.61227 12.1977 3.16455 12.7499 3.16455C13.3022 3.16455 13.7499 3.61227 13.7499 4.16455V12.1646C13.7499 12.7168 13.3022 13.1646 12.7499 13.1646C12.1977 13.1646 11.7499 12.7168 11.7499 12.1646Z" fill="#3B3B3B"/>
</g>
<defs>
<clipPath id="clip0_745_3338">
<rect width="24" height="24" fill="white"/>
</clipPath>
</defs>
</svg>
