<svg width="24" height="24" viewBox="0 0 24 24" fill="none" xmlns="http://www.w3.org/2000/svg">
<g clip-path="url(#clip0_745_3340)">
<path fill-rule="evenodd" clip-rule="evenodd" d="M3 9C3 7.34315 4.34315 6 6 6H11C11.5523 6 12 6.44772 12 7C12 7.55228 11.5523 8 11 8H6C5.44772 8 5 8.44772 5 9V18C5 18.5523 5.44772 19 6 19H15C15.5523 19 16 18.5523 16 18V13C16 12.4477 16.4477 12 17 12C17.5523 12 18 12.4477 18 13V18C18 19.6569 16.6569 21 15 21H6C4.34315 21 3 19.6569 3 18V9Z" fill="#3B3B3B"/>
<path fill-rule="evenodd" clip-rule="evenodd" d="M20.7071 3.29289C21.0976 3.68342 21.0976 4.31658 20.7071 4.70711L10.7071 14.7071C10.3166 15.0976 9.68342 15.0976 9.29289 14.7071C8.90237 14.3166 8.90237 13.6834 9.29289 13.2929L19.2929 3.29289C19.6834 2.90237 20.3166 2.90237 20.7071 3.29289Z" fill="#3B3B3B"/>
<path fill-rule="evenodd" clip-rule="evenodd" d="M14 4C14 3.44772 14.4477 3 15 3H20C20.5523 3 21 3.44772 21 4V9C21 9.55228 20.5523 10 20 10C19.4477 10 19 9.55228 19 9V5H15C14.4477 5 14 4.55228 14 4Z" fill="#3B3B3B"/>
</g>
<defs>
<clipPath id="clip0_745_3340">
<rect width="24" height="24" fill="white"/>
</clipPath>
</defs>
</svg>
