<svg width="24" height="24" viewBox="0 0 24 24" fill="none" xmlns="http://www.w3.org/2000/svg">
<g clip-path="url(#clip0_745_3316)">
<path fill-rule="evenodd" clip-rule="evenodd" d="M13.7929 4.79289C14.5109 4.07492 15.4846 3.67157 16.5 3.67157C17.5154 3.67157 18.4891 4.07492 19.2071 4.79289C19.9251 5.51086 20.3284 6.48464 20.3284 7.5C20.3284 8.51536 19.9251 9.48914 19.2071 10.2071L8.70711 20.7071C8.51957 20.8946 8.26522 21 8 21H4C3.44772 21 3 20.5523 3 20V16C3 15.7348 3.10536 15.4804 3.29289 15.2929L12.7927 5.79308L13.7929 4.79289ZM13.5 7.91421L5 16.4142V19H7.58579L16.0858 10.5L13.5 7.91421ZM17.5 9.08579L14.9142 6.5L15.2071 6.20711C15.55 5.86421 16.0151 5.67157 16.5 5.67157C16.9849 5.67157 17.45 5.86421 17.7929 6.20711C18.1358 6.55 18.3284 7.01507 18.3284 7.5C18.3284 7.98493 18.1358 8.45 17.7929 8.79289L17.5 9.08579Z" fill="#3B3B3B"/>
</g>
<defs>
<clipPath id="clip0_745_3316">
<rect width="24" height="24" fill="white"/>
</clipPath>
</defs>
</svg>
