<svg width="24" height="24" viewBox="0 0 24 24" fill="none" xmlns="http://www.w3.org/2000/svg">
<g clip-path="url(#clip0_745_3370)">
<path fill-rule="evenodd" clip-rule="evenodd" d="M13.0251 3.00034C13.1481 2.46191 13.6842 2.12512 14.2227 2.24809C16.4316 2.7526 18.4039 3.99214 19.8165 5.76376C21.2291 7.53538 21.9984 9.73412 21.9984 12C21.9984 14.2659 21.2291 16.4646 19.8165 18.2362C18.4039 20.0078 16.4316 21.2474 14.2227 21.7519C13.6842 21.8749 13.1481 21.5381 13.0251 20.9996C12.9021 20.4612 13.2389 19.9251 13.7773 19.8021C15.5447 19.3985 17.1226 18.4068 18.2528 16.9893C19.383 15.5719 19.9984 13.8128 19.9984 12C19.9984 10.1872 19.383 8.42804 18.2528 7.01063C17.1226 5.59323 15.5447 4.60152 13.7773 4.19789C13.2389 4.07492 12.9021 3.53876 13.0251 3.00034ZM10.9751 3.00139C11.0975 3.53995 10.7601 4.07574 10.2216 4.19813C9.23762 4.42173 8.30518 4.83052 7.47403 5.40269C7.01911 5.71585 6.39646 5.60094 6.0833 5.14602C5.77014 4.6911 5.88505 4.06845 6.33997 3.75529C7.38012 3.03926 8.54701 2.52768 9.7784 2.24785C10.317 2.12547 10.8527 2.46284 10.9751 3.00139ZM4.67766 6.64529C5.16074 6.91296 5.33536 7.52157 5.06769 8.00466L4.90458 8.29903C4.52347 9.02938 4.25167 9.82554 4.1101 10.6661C4.01838 11.2107 3.50252 11.5778 2.95791 11.4861C2.41329 11.3944 2.04615 10.8785 2.13788 10.3339C2.31566 9.27833 2.65799 8.27798 3.1381 7.3611L3.14929 7.34032L3.31829 7.03532C3.58597 6.55224 4.19458 6.37761 4.67766 6.64529ZM3.07428 13.5403C3.60484 13.387 4.15928 13.6927 4.31266 14.2233C4.55005 15.0444 4.91812 15.8219 5.40274 16.526C5.71587 16.981 5.60091 17.6036 5.14598 17.9167C4.69104 18.2299 4.0684 18.1149 3.75527 17.66C3.1489 16.779 2.68836 15.8061 2.39134 14.7787C2.23796 14.2482 2.54372 13.6937 3.07428 13.5403ZM6.65314 19.3095C6.92848 18.8307 7.53979 18.6658 8.01855 18.9412C8.7057 19.3363 9.44815 19.6264 10.2212 19.8018C10.7598 19.924 11.0974 20.4596 10.9752 20.9982C10.8531 21.5368 10.3174 21.8744 9.7788 21.7522C8.81107 21.5327 7.88165 21.1696 7.02145 20.6749C6.5427 20.3995 6.3778 19.7882 6.65314 19.3095Z" fill="#3B3B3B"/>
</g>
<defs>
<clipPath id="clip0_745_3370">
<rect width="24" height="24" fill="white"/>
</clipPath>
</defs>
</svg>
