<svg width="24" height="24" viewBox="0 0 24 24" fill="none" xmlns="http://www.w3.org/2000/svg">
<g clip-path="url(#clip0_745_3312)">
<path fill-rule="evenodd" clip-rule="evenodd" d="M12 4C7.58172 4 4 7.58172 4 12C4 16.4183 7.58172 20 12 20C16.4183 20 20 16.4183 20 12C20 7.58172 16.4183 4 12 4ZM2 12C2 6.47715 6.47715 2 12 2C17.5228 2 22 6.47715 22 12C22 17.5228 17.5228 22 12 22C6.47715 22 2 17.5228 2 12Z" fill="#3B3B3B"/>
<path fill-rule="evenodd" clip-rule="evenodd" d="M12 16C12.5523 16 13 16.4477 13 17V17.01C13 17.5623 12.5523 18.01 12 18.01C11.4477 18.01 11 17.5623 11 17.01V17C11 16.4477 11.4477 16 12 16Z" fill="#3B3B3B"/>
<path fill-rule="evenodd" clip-rule="evenodd" d="M9.20334 7.39557C10.1269 6.17835 11.7181 5.67667 13.1728 6.14416C14.6274 6.61164 15.6285 7.94642 15.67 9.47377C15.7115 11.0011 14.7843 12.3883 13.3572 12.934C13.3487 12.9373 13.3403 12.9404 13.3317 12.9434C13.1217 13.0172 12.9858 13.2211 12.9984 13.4434C13.0297 13.9948 12.608 14.4671 12.0566 14.4984C11.5052 14.5297 11.0329 14.108 11.0016 13.5566C10.9389 12.4508 11.6112 11.4362 12.6524 11.0623C13.2812 10.8172 13.6891 10.2035 13.6707 9.52807C13.6523 8.84925 13.2074 8.25601 12.5609 8.04824C11.9143 7.84047 11.2071 8.06344 10.7967 8.60443C10.4628 9.04441 9.83555 9.13048 9.39557 8.79666C8.95559 8.46284 8.86952 7.83555 9.20334 7.39557Z" fill="#3B3B3B"/>
</g>
<defs>
<clipPath id="clip0_745_3312">
<rect width="24" height="24" fill="white"/>
</clipPath>
</defs>
</svg>
