<svg width="24" height="24" viewBox="0 0 24 24" fill="none" xmlns="http://www.w3.org/2000/svg">
<g clip-path="url(#clip0_745_3408)">
<path fill-rule="evenodd" clip-rule="evenodd" d="M5.33666 5.45909L7.21663 11H16.6758L5.33666 5.45909ZM16.6758 13H7.21663L5.33666 18.5408L16.6758 13ZM5.44394 12L3.08676 5.05261C2.99315 4.78466 2.97465 4.49614 3.03334 4.21833C3.09264 3.93765 3.22842 3.67886 3.42565 3.47057C3.63021 3.25435 3.89436 3.10373 4.18462 3.03781C4.4751 2.97184 4.77863 2.99367 5.05668 3.10054C5.08394 3.11101 5.11073 3.12268 5.13697 3.1355L21.439 11.1015C21.7822 11.2692 21.9999 11.6179 21.9999 12C21.9999 12.382 21.7822 12.7307 21.439 12.8984L5.13697 20.8644C5.11073 20.8773 5.08394 20.8889 5.05668 20.8994C4.77863 21.0063 4.4751 21.0281 4.18462 20.9621C3.89413 20.8962 3.6298 20.7454 3.42519 20.5289L4.15193 19.842L3.42612 20.5299C3.22863 20.3215 3.09268 20.0625 3.03334 19.7816C2.97465 19.5038 2.99315 19.2153 3.08676 18.9473L5.44394 12ZM4.97616 4.39677L4.97396 4.39044L4.97616 4.39677Z" fill="#1C7ED6"/>
</g>
<defs>
<clipPath id="clip0_745_3408">
<rect width="24" height="24" fill="white"/>
</clipPath>
</defs>
</svg>
